# Blender 5.0.1
# www.blender.org
mtllib tommy dreamer.mtl
o shot_2026-01-25_21-43-58-816.015
v 0.762171 1.017805 -0.132275
v 0.720035 1.028833 -0.129996
v 0.757125 1.008247 -0.129873
v 0.722282 1.015869 -0.128835
v 0.676300 1.017529 -0.123594
v 0.722282 1.015869 -0.128835
v 0.673492 1.033734 -0.125046
v 0.720035 1.028833 -0.129996
v 0.781563 1.008071 -0.107129
v 0.785386 1.019158 -0.109448
v 0.757125 1.008247 -0.129873
v 0.762171 1.017805 -0.132275
v 0.673492 1.033734 -0.125046
v 0.608567 1.016957 -0.104452
v 0.676300 1.017529 -0.123594
v -0.558498 1.019741 -0.100542
v -0.487162 1.018316 -0.099506
v -0.555950 1.036228 -0.105201
v -0.637990 1.014196 -0.086611
v -0.604202 1.020182 -0.095163
v -0.643501 1.023568 -0.089073
v -0.602382 1.031957 -0.098491
v 0.608567 1.016957 -0.104452
v 0.619738 0.996995 -0.080381
v 0.676300 1.017529 -0.123594
v -0.555950 1.036228 -0.105201
v -0.602382 1.031957 -0.098491
v -0.558498 1.019741 -0.100542
v -0.604202 1.020182 -0.095163
v 0.781563 1.008071 -0.107129
v 0.782138 1.010649 -0.077518
v 0.785386 1.019158 -0.109448
v 0.787845 1.021919 -0.080295
v 0.613331 1.040327 -0.081078
v 0.608567 1.016957 -0.104452
v 0.673492 1.033734 -0.125046
v -0.555950 1.036228 -0.105201
v -0.487162 1.018316 -0.099506
v -0.483183 1.045729 -0.079939
v -0.558498 1.019741 -0.100542
v -0.489715 1.003246 -0.071345
v -0.487162 1.018316 -0.099506
v -0.637990 1.014196 -0.086611
v -0.643501 1.023568 -0.089073
v -0.653514 1.018389 -0.059199
v -0.657804 1.029226 -0.062101
v 0.700242 1.014459 -0.055674
v 0.743527 1.020414 -0.065575
v 0.676300 1.017529 -0.123594
v 0.722282 1.015869 -0.128835
v 0.743527 1.020414 -0.065575
v 0.781563 1.008071 -0.107129
v 0.722282 1.015869 -0.128835
v 0.757125 1.008247 -0.129873
v 0.782138 1.010649 -0.077518
v 0.743527 1.020414 -0.065575
v 0.787845 1.021919 -0.080295
v 0.740298 1.039050 -0.067243
v 0.720035 1.028833 -0.129996
v 0.762171 1.017805 -0.132275
v 0.740298 1.039050 -0.067243
v 0.785386 1.019158 -0.109448
v 0.785386 1.019158 -0.109448
v 0.787845 1.021919 -0.080295
v 0.740298 1.039050 -0.067243
v 0.619738 0.996995 -0.080381
v 0.700242 1.014459 -0.055674
v 0.676300 1.017529 -0.123594
v 0.743527 1.020414 -0.065575
v 0.782138 1.010649 -0.077518
v 0.781563 1.008071 -0.107129
v 0.694626 1.046868 -0.058576
v 0.649969 1.031427 -0.050565
v 0.613331 1.040327 -0.081078
v 0.626496 1.016801 -0.052708
v 0.739519 1.018415 -0.054079
v 0.737273 1.031378 -0.055240
v 0.700242 1.014459 -0.055674
v 0.694626 1.046868 -0.058576
v 0.700242 1.014459 -0.055674
v 0.694626 1.046868 -0.058576
v 0.743527 1.020414 -0.065575
v 0.740298 1.039050 -0.067243
v 0.673492 1.033734 -0.125046
v 0.720035 1.028833 -0.129996
v 0.694626 1.046868 -0.058576
v 0.740298 1.039050 -0.067243
v 0.673492 1.033734 -0.125046
v 0.694626 1.046868 -0.058576
v 0.613331 1.040327 -0.081078
v 0.654181 1.007119 -0.048389
v 0.700242 1.014459 -0.055674
v 0.619738 0.996995 -0.080381
v 0.619738 0.996995 -0.080381
v 0.626496 1.016801 -0.052708
v 0.654181 1.007119 -0.048389
v 0.649969 1.031427 -0.050565
v 0.654181 1.007119 -0.048389
v 0.626496 1.016801 -0.052708
v -0.657804 1.029226 -0.062101
v -0.650057 1.036148 -0.034370
v -0.653514 1.018389 -0.059199
v -0.643811 1.025100 -0.031460
v 0.739519 1.018415 -0.054079
v 0.744476 1.016828 -0.040407
v 0.737273 1.031378 -0.055240
v 0.742229 1.029792 -0.041568
v 0.695150 1.015689 -0.034032
v 0.654181 1.007119 -0.048389
v 0.691566 1.031602 -0.037845
v 0.649969 1.031427 -0.050565
v 0.694626 1.046868 -0.058576
v 0.737273 1.031378 -0.055240
v 0.691566 1.031602 -0.037845
v 0.742229 1.029792 -0.041568
v 0.739519 1.018415 -0.054079
v 0.700242 1.014459 -0.055674
v 0.744476 1.016828 -0.040407
v 0.695150 1.015689 -0.034032
v 0.744476 1.016828 -0.040407
v 0.695150 1.015689 -0.034032
v 0.742229 1.029792 -0.041568
v 0.691566 1.031602 -0.037845
v 0.691566 1.031602 -0.037845
v 0.649969 1.031427 -0.050565
v 0.694626 1.046868 -0.058576
v 0.700242 1.014459 -0.055674
v 0.654181 1.007119 -0.048389
v 0.695150 1.015689 -0.034032
v -0.558498 1.019741 -0.100542
v -0.557909 1.027915 -0.031147
v -0.489715 1.003246 -0.071345
v -0.489715 1.003246 -0.071345
v -0.557909 1.027915 -0.031147
v -0.511462 1.019414 -0.034300
v -0.511462 1.019414 -0.034300
v -0.486335 1.027043 -0.046489
v -0.489715 1.003246 -0.071345
v -0.486335 1.027043 -0.046489
v -0.511462 1.019414 -0.034300
v -0.507823 1.042966 -0.040957
v -0.604202 1.020182 -0.095163
v -0.637990 1.014196 -0.086611
v -0.602624 1.034546 -0.030935
v -0.653514 1.018389 -0.059199
v -0.650057 1.036148 -0.034370
v -0.599834 1.052602 -0.036040
v -0.643811 1.025100 -0.031460
v -0.602624 1.034546 -0.030935
v -0.599834 1.052602 -0.036040
v -0.650057 1.036148 -0.034370
v -0.657804 1.029226 -0.062101
v -0.653514 1.018389 -0.059199
v -0.643811 1.025100 -0.031460
v -0.602624 1.034546 -0.030935
v -0.483183 1.045729 -0.079939
v -0.486335 1.027043 -0.046489
v -0.553057 1.059318 -0.040024
v -0.507823 1.042966 -0.040957
v -0.557909 1.027915 -0.031147
v -0.553057 1.059318 -0.040024
v -0.594856 1.033974 -0.020745
v -0.592915 1.046535 -0.024296
v -0.558498 1.019741 -0.100542
v -0.604202 1.020182 -0.095163
v -0.557909 1.027915 -0.031147
v -0.602624 1.034546 -0.030935
v -0.602624 1.034546 -0.030935
v -0.599834 1.052602 -0.036040
v -0.557909 1.027915 -0.031147
v -0.553057 1.059318 -0.040024
v -0.553057 1.059318 -0.040024
v -0.599834 1.052602 -0.036040
v -0.555950 1.036228 -0.105201
v -0.602382 1.031957 -0.098491
v -0.599834 1.052602 -0.036040
v -0.657804 1.029226 -0.062101
v -0.602382 1.031957 -0.098491
v -0.643501 1.023568 -0.089073
v -0.483183 1.045729 -0.079939
v -0.553057 1.059318 -0.040024
v -0.555950 1.036228 -0.105201
v -0.592915 1.046535 -0.024296
v -0.592962 1.047114 -0.009948
v -0.594856 1.033974 -0.020745
v -0.594903 1.034554 -0.006398
v -0.543181 1.047167 -0.018133
v -0.507823 1.042966 -0.040957
v -0.545555 1.031903 -0.012110
v -0.511462 1.019414 -0.034300
v -0.543181 1.047167 -0.018133
v -0.592962 1.047114 -0.009948
v -0.553057 1.059318 -0.040024
v -0.592915 1.046535 -0.024296
v -0.594903 1.034554 -0.006398
v -0.545555 1.031903 -0.012110
v -0.594856 1.033974 -0.020745
v -0.557909 1.027915 -0.031147
v -0.592962 1.047114 -0.009948
v -0.543181 1.047167 -0.018133
v -0.594903 1.034554 -0.006398
v -0.545555 1.031903 -0.012110
v -0.553057 1.059318 -0.040024
v -0.507823 1.042966 -0.040957
v -0.543181 1.047167 -0.018133
v -0.545555 1.031903 -0.012110
v -0.511462 1.019414 -0.034300
v -0.557909 1.027915 -0.031147
v 0.203691 0.092093 -0.071467
v 0.219053 0.086932 -0.085133
v 0.171181 0.093538 -0.072113
v 0.152211 0.090308 -0.080644
v 0.215652 0.092427 -0.042430
v 0.239404 0.073507 -0.040014
v 0.203691 0.092093 -0.071467
v 0.219053 0.086932 -0.085133
v -0.142173 0.109260 -0.057047
v -0.121342 0.093412 -0.064413
v -0.185517 0.108060 -0.051059
v -0.185883 0.096438 -0.071005
v 0.152211 0.090308 -0.080644
v 0.136561 0.077424 -0.027094
v 0.171181 0.093538 -0.072113
v 0.159243 0.094948 -0.035320
v -0.185517 0.108060 -0.051059
v -0.185883 0.096438 -0.071005
v -0.186371 0.107297 -0.027958
v -0.211652 0.090938 -0.027600
v -0.142173 0.109260 -0.057047
v -0.131075 0.106395 -0.020181
v -0.121342 0.093412 -0.064413
v -0.110241 0.085277 -0.008991
v 0.219544 0.072190 0.011990
v 0.206594 0.092061 -0.006394
v 0.149899 0.075202 0.019052
v 0.164233 0.093944 -0.007234
v 0.149899 0.075202 0.019052
v 0.164233 0.093944 -0.007234
v 0.136561 0.077424 -0.027094
v 0.159243 0.094948 -0.035320
v 0.219544 0.072190 0.011990
v 0.239404 0.073507 -0.040014
v 0.206594 0.092061 -0.006394
v 0.215652 0.092427 -0.042430
v 0.152211 0.090308 -0.080644
v 0.219053 0.086932 -0.085133
v 0.135089 0.283924 -0.041681
v 0.178391 0.291111 -0.052987
v 0.152211 0.090308 -0.080644
v 0.135089 0.283924 -0.041681
v 0.136561 0.077424 -0.027094
v -0.074987 0.287341 -0.042746
v -0.117019 0.297041 -0.057089
v -0.121342 0.093412 -0.064413
v -0.185883 0.096438 -0.071005
v -0.178191 0.102108 0.007034
v -0.186371 0.107297 -0.027958
v -0.198454 0.092985 0.024928
v -0.211652 0.090938 -0.027600
v -0.074987 0.287341 -0.042746
v -0.121342 0.093412 -0.064413
v -0.110241 0.085277 -0.008991
v 0.212501 0.297394 -0.041326
v 0.219053 0.086932 -0.085133
v 0.239404 0.073507 -0.040014
v 0.219053 0.086932 -0.085133
v 0.212501 0.297394 -0.041326
v 0.178391 0.291111 -0.052987
v -0.136777 0.102684 0.006789
v -0.178191 0.102108 0.007034
v -0.127574 0.089300 0.035467
v -0.198454 0.092985 0.024928
v -0.127574 0.089300 0.035467
v -0.110241 0.085277 -0.008991
v -0.136777 0.102684 0.006789
v -0.131075 0.106395 -0.020181
v -0.211652 0.090938 -0.027600
v -0.185883 0.096438 -0.071005
v -0.150501 0.308809 -0.047770
v -0.117019 0.297041 -0.057089
v -0.150501 0.308809 -0.047770
v -0.185883 0.096438 -0.071005
v 0.211648 0.372192 -0.034371
v 0.131563 0.371538 -0.030264
v 0.212501 0.297394 -0.041326
v 0.178391 0.291111 -0.052987
v 0.131563 0.371538 -0.030264
v 0.135089 0.283924 -0.041681
v 0.178391 0.291111 -0.052987
v -0.150501 0.308809 -0.047770
v -0.117019 0.297041 -0.057089
v -0.136848 0.385740 -0.045889
v -0.058922 0.377180 -0.037663
v -0.117019 0.297041 -0.057089
v -0.074987 0.287341 -0.042746
v -0.058922 0.377180 -0.037663
v -0.136848 0.385740 -0.045889
v -0.058922 0.377180 -0.037663
v -0.067786 0.494242 -0.054690
v 0.159398 0.483674 -0.040426
v 0.131563 0.371538 -0.030264
v 0.211648 0.372192 -0.034371
v 0.211648 0.372192 -0.034371
v 0.212501 0.297394 -0.041326
v 0.241721 0.364940 0.027549
v 0.239404 0.073507 -0.040014
v 0.131563 0.371538 -0.030264
v 0.099579 0.360595 0.026607
v 0.135089 0.283924 -0.041681
v 0.136561 0.077424 -0.027094
v -0.074987 0.287341 -0.042746
v -0.110241 0.085277 -0.008991
v -0.058922 0.377180 -0.037663
v -0.031687 0.368013 0.019524
v -0.170911 0.386640 0.013000
v -0.211652 0.090938 -0.027600
v -0.136848 0.385740 -0.045889
v -0.150501 0.308809 -0.047770
v 0.088115 0.606768 -0.062323
v 0.159398 0.483674 -0.040426
v 0.143695 0.586873 -0.054203
v -0.011709 0.472745 -0.017310
v 0.029604 0.609013 -0.068180
v -0.067786 0.494242 -0.054690
v -0.037531 0.594644 -0.067396
v -0.067786 0.494242 -0.054690
v 0.029604 0.609013 -0.068180
v -0.067786 0.494242 -0.054690
v -0.058922 0.377180 -0.037663
v -0.011709 0.472745 -0.017310
v 0.047869 0.666122 -0.075579
v 0.029604 0.609013 -0.068180
v 0.091109 0.663984 -0.072393
v 0.088115 0.606768 -0.062323
v 0.047869 0.666122 -0.075579
v 0.008176 0.669252 -0.074935
v 0.029604 0.609013 -0.068180
v 0.211648 0.372192 -0.034371
v 0.241721 0.364940 0.027549
v 0.240855 0.390494 0.029741
v 0.097707 0.467366 -0.008188
v 0.131563 0.371538 -0.030264
v 0.159398 0.483674 -0.040426
v 0.131563 0.371538 -0.030264
v 0.097707 0.467366 -0.008188
v 0.095168 0.378924 0.028570
v 0.099579 0.360595 0.026607
v 0.131563 0.371538 -0.030264
v 0.095168 0.378924 0.028570
v 0.159398 0.483674 -0.040426
v 0.088115 0.606768 -0.062323
v 0.097707 0.467366 -0.008188
v -0.136848 0.385740 -0.045889
v -0.089183 0.578117 -0.040362
v -0.166504 0.411968 0.014703
v -0.166504 0.411968 0.014703
v -0.170911 0.386640 0.013000
v -0.136848 0.385740 -0.045889
v -0.089183 0.578117 -0.040362
v -0.067786 0.494242 -0.054690
v -0.037531 0.594644 -0.067396
v -0.136848 0.385740 -0.045889
v -0.067786 0.494242 -0.054690
v -0.089183 0.578117 -0.040362
v -0.023822 0.385763 0.021427
v -0.058922 0.377180 -0.037663
v -0.031687 0.368013 0.019524
v -0.011709 0.472745 -0.017310
v -0.058922 0.377180 -0.037663
v -0.023822 0.385763 0.021427
v 0.088115 0.606768 -0.062323
v 0.128958 0.663188 -0.065381
v 0.091109 0.663984 -0.072393
v 0.191418 0.564524 -0.024335
v 0.159398 0.483674 -0.040426
v 0.211648 0.372192 -0.034371
v 0.191418 0.564524 -0.024335
v 0.211648 0.372192 -0.034371
v 0.240855 0.390494 0.029741
v 0.143695 0.586873 -0.054203
v 0.159398 0.483674 -0.040426
v 0.191418 0.564524 -0.024335
v 0.048994 0.720814 -0.068151
v 0.047869 0.666122 -0.075579
v 0.096154 0.718471 -0.064601
v 0.091109 0.663984 -0.072393
v 0.029604 0.609013 -0.068180
v 0.008176 0.669252 -0.074935
v -0.049014 0.683522 -0.057770
v 0.073393 0.464987 0.033958
v 0.095168 0.378924 0.028570
v 0.097707 0.467366 -0.008188
v -0.089183 0.578117 -0.040362
v -0.037531 0.594644 -0.067396
v -0.049014 0.683522 -0.057770
v -0.049014 0.683522 -0.057770
v -0.037531 0.594644 -0.067396
v 0.029604 0.609013 -0.068180
v 0.009844 0.469105 0.026160
v -0.011709 0.472745 -0.017310
v -0.023822 0.385763 0.021427
v 0.241721 0.364940 0.027549
v 0.239404 0.073507 -0.040014
v 0.205840 0.356476 0.083768
v 0.219544 0.072190 0.011990
v 0.133639 0.355296 0.087512
v 0.149899 0.075202 0.019052
v 0.099579 0.360595 0.026607
v 0.136561 0.077424 -0.027094
v 0.149899 0.075202 0.019052
v 0.133639 0.355296 0.087512
v 0.219544 0.072190 0.011990
v 0.205840 0.356476 0.083768
v 0.095168 0.378924 0.028570
v 0.133639 0.355296 0.087512
v 0.099579 0.360595 0.026607
v 0.240855 0.390494 0.029741
v 0.241721 0.364940 0.027549
v 0.205840 0.356476 0.083768
v -0.198454 0.092985 0.024928
v -0.147691 0.378534 0.070724
v -0.127574 0.089300 0.035467
v -0.076673 0.370199 0.078294
v -0.031687 0.368013 0.019524
v -0.110241 0.085277 -0.008991
v -0.076673 0.370199 0.078294
v -0.127574 0.089300 0.035467
v -0.147691 0.378534 0.070724
v -0.198454 0.092985 0.024928
v -0.170911 0.386640 0.013000
v -0.211652 0.090938 -0.027600
v -0.031687 0.368013 0.019524
v -0.076673 0.370199 0.078294
v -0.023822 0.385763 0.021427
v -0.147691 0.378534 0.070724
v -0.170911 0.386640 0.013000
v -0.166504 0.411968 0.014703
v 0.008176 0.669252 -0.074935
v 0.047869 0.666122 -0.075579
v -0.030554 0.724418 -0.059704
v 0.048994 0.720814 -0.068151
v 0.172749 0.673874 -0.041346
v 0.128958 0.663188 -0.065381
v 0.088115 0.606768 -0.062323
v -0.049014 0.683522 -0.057770
v 0.008176 0.669252 -0.074935
v -0.030554 0.724418 -0.059704
v 0.088115 0.606768 -0.062323
v 0.143695 0.586873 -0.054203
v 0.172749 0.673874 -0.041346
v 0.191418 0.564524 -0.024335
v 0.172749 0.673874 -0.041346
v 0.143695 0.586873 -0.054203
v 0.170479 0.714060 -0.041891
v 0.096154 0.718471 -0.064601
v 0.128958 0.663188 -0.065381
v 0.091109 0.663984 -0.072393
v 0.170479 0.714060 -0.041891
v 0.128958 0.663188 -0.065381
v 0.172749 0.673874 -0.041346
v 0.191418 0.564524 -0.024335
v 0.240855 0.390494 0.029741
v 0.229894 0.521918 0.041172
v -0.166504 0.411968 0.014703
v -0.089183 0.578117 -0.040362
v -0.137408 0.541576 0.023955
v -0.147691 0.378534 0.070724
v -0.166504 0.411968 0.014703
v -0.124876 0.506347 0.060192
v -0.076673 0.370199 0.078294
v -0.147691 0.378534 0.070724
v -0.108197 0.434921 0.085414
v -0.124876 0.506347 0.060192
v -0.108197 0.434921 0.085414
v -0.147691 0.378534 0.070724
v 0.096154 0.718471 -0.064601
v 0.065755 0.768977 -0.039321
v 0.048994 0.720814 -0.068151
v -0.137408 0.541576 0.023955
v -0.124876 0.506347 0.060192
v -0.166504 0.411968 0.014703
v 0.029604 0.609013 -0.068180
v -0.011709 0.472745 -0.017310
v 0.047449 0.596901 0.021654
v 0.009844 0.469105 0.026160
v 0.047449 0.596901 0.021654
v -0.011709 0.472745 -0.017310
v 0.209571 0.487467 0.075702
v 0.240855 0.390494 0.029741
v 0.205840 0.356476 0.083768
v 0.205840 0.356476 0.083768
v 0.179776 0.417842 0.097239
v 0.209571 0.487467 0.075702
v 0.179776 0.417842 0.097239
v 0.205840 0.356476 0.083768
v 0.133639 0.355296 0.087512
v 0.169835 0.763053 -0.018119
v 0.065755 0.768977 -0.039321
v 0.170479 0.714060 -0.041891
v 0.096154 0.718471 -0.064601
v 0.047449 0.596901 0.021654
v 0.053749 0.595996 0.028865
v 0.029604 0.609013 -0.068180
v 0.088115 0.606768 -0.062323
v -0.030554 0.724418 -0.059704
v 0.048994 0.720814 -0.068151
v -0.040039 0.767783 -0.029679
v 0.065755 0.768977 -0.039321
v 0.097707 0.467366 -0.008188
v 0.053749 0.595996 0.028865
v 0.073393 0.464987 0.033958
v 0.097707 0.467366 -0.008188
v 0.088115 0.606768 -0.062323
v 0.053749 0.595996 0.028865
v 0.229894 0.521918 0.041172
v 0.240855 0.390494 0.029741
v 0.209571 0.487467 0.075702
v -0.049014 0.683522 -0.057770
v -0.030554 0.724418 -0.059704
v -0.089298 0.706365 0.013960
v -0.089298 0.706365 0.013960
v -0.107976 0.643166 0.031916
v -0.089183 0.578117 -0.040362
v -0.137408 0.541576 0.023955
v -0.107976 0.643166 0.031916
v -0.124876 0.506347 0.060192
v -0.089183 0.578117 -0.040362
v -0.107976 0.643166 0.031916
v -0.137408 0.541576 0.023955
v -0.089298 0.706365 0.013960
v -0.089183 0.578117 -0.040362
v -0.049014 0.683522 -0.057770
v 0.133639 0.355296 0.087512
v 0.095168 0.378924 0.028570
v 0.089646 0.507971 0.098242
v 0.179776 0.417842 0.097239
v 0.133639 0.355296 0.087512
v 0.089646 0.507971 0.098242
v 0.619738 0.996995 -0.080381
v 0.608567 1.016957 -0.104452
v 0.469291 1.002965 -0.092632
v -0.005802 0.515291 0.088463
v -0.023822 0.385763 0.021427
v -0.076673 0.370199 0.078294
v -0.108197 0.434921 0.085414
v -0.005802 0.515291 0.088463
v -0.076673 0.370199 0.078294
v 0.205750 0.691407 0.034803
v 0.170479 0.714060 -0.041891
v 0.172749 0.673874 -0.041346
v 0.191418 0.564524 -0.024335
v 0.214747 0.626413 0.050545
v 0.205750 0.691407 0.034803
v 0.089646 0.507971 0.098242
v 0.095168 0.378924 0.028570
v 0.073393 0.464987 0.033958
v 0.209571 0.487467 0.075702
v 0.214747 0.626413 0.050545
v 0.229894 0.521918 0.041172
v 0.172749 0.673874 -0.041346
v 0.191418 0.564524 -0.024335
v 0.205750 0.691407 0.034803
v 0.214747 0.626413 0.050545
v 0.191418 0.564524 -0.024335
v 0.229894 0.521918 0.041172
v 0.053749 0.595996 0.028865
v 0.089646 0.507971 0.098242
v 0.073393 0.464987 0.033958
v -0.005802 0.515291 0.088463
v 0.047449 0.596901 0.021654
v 0.009844 0.469105 0.026160
v -0.023822 0.385763 0.021427
v -0.005802 0.515291 0.088463
v 0.009844 0.469105 0.026160
v 0.408806 1.041213 -0.073991
v 0.316771 1.036940 -0.074506
v 0.410154 1.009202 -0.072361
v 0.313597 0.988560 -0.067991
v 0.408806 1.041213 -0.073991
v 0.410154 1.009202 -0.072361
v 0.407778 1.040780 -0.074837
v 0.409115 1.008772 -0.073269
v 0.313597 0.988560 -0.067991
v 0.316771 1.036940 -0.074506
v 0.221710 0.985346 -0.048678
v 0.608567 1.016957 -0.104452
v 0.473864 1.052387 -0.076940
v 0.469291 1.002965 -0.092632
v 0.407778 1.040780 -0.074837
v 0.469291 1.002965 -0.092632
v 0.473864 1.052387 -0.076940
v 0.469291 1.002965 -0.092632
v 0.407778 1.040780 -0.074837
v 0.409115 1.008772 -0.073269
v 0.469291 1.002965 -0.092632
v 0.480210 0.984044 -0.044331
v 0.619738 0.996995 -0.080381
v 0.608567 1.016957 -0.104452
v 0.613331 1.040327 -0.081078
v 0.473864 1.052387 -0.076940
v -0.040039 0.767783 -0.029679
v -0.076725 0.760926 0.029815
v -0.030554 0.724418 -0.059704
v -0.089298 0.706365 0.013960
v -0.037499 0.598092 0.097631
v 0.034539 0.608856 0.091124
v -0.005802 0.515291 0.088463
v -0.005802 0.515291 0.088463
v -0.108197 0.434921 0.085414
v -0.037499 0.598092 0.097631
v -0.005802 0.515291 0.088463
v 0.034539 0.608856 0.091124
v 0.047449 0.596901 0.021654
v -0.108197 0.434921 0.085414
v -0.124876 0.506347 0.060192
v -0.037499 0.598092 0.097631
v 0.480210 0.984044 -0.044331
v 0.469291 1.002965 -0.092632
v 0.424058 0.989565 -0.033731
v 0.409115 1.008772 -0.073269
v 0.313597 0.988560 -0.067991
v 0.226629 0.952318 -0.024580
v 0.424058 0.989565 -0.033731
v 0.410154 1.009202 -0.072361
v 0.313597 0.988560 -0.067991
v 0.424058 0.989565 -0.033731
v 0.409115 1.008772 -0.073269
v 0.410154 1.009202 -0.072361
v 0.424058 0.989565 -0.033731
v 0.221710 0.985346 -0.048678
v 0.226629 0.952318 -0.024580
v 0.313597 0.988560 -0.067991
v 0.626496 1.016801 -0.052708
v 0.619738 0.996995 -0.080381
v 0.480210 0.984044 -0.044331
v 0.034539 0.608856 0.091124
v 0.057085 0.606323 0.097135
v 0.047449 0.596901 0.021654
v 0.053749 0.595996 0.028865
v 0.170479 0.714060 -0.041891
v 0.205750 0.691407 0.034803
v 0.169835 0.763053 -0.018119
v 0.196188 0.753954 0.044791
v 0.089646 0.507971 0.098242
v 0.057085 0.606323 0.097135
v 0.132219 0.586724 0.111312
v 0.132219 0.586724 0.111312
v 0.179776 0.417842 0.097239
v 0.089646 0.507971 0.098242
v 0.053749 0.595996 0.028865
v 0.057085 0.606323 0.097135
v 0.089646 0.507971 0.098242
v 0.132219 0.586724 0.111312
v 0.209571 0.487467 0.075702
v 0.179776 0.417842 0.097239
v -0.124876 0.506347 0.060192
v -0.107976 0.643166 0.031916
v -0.060699 0.696229 0.075212
v -0.060699 0.696229 0.075212
v -0.107976 0.643166 0.031916
v -0.089298 0.706365 0.013960
v -0.060699 0.696229 0.075212
v -0.037499 0.598092 0.097631
v -0.124876 0.506347 0.060192
v 0.205273 1.065123 -0.056662
v 0.221710 0.985346 -0.048678
v 0.316771 1.036940 -0.074506
v 0.221710 0.985346 -0.048678
v 0.205273 1.065123 -0.056662
v 0.181356 1.060576 -0.054694
v 0.034539 0.608856 0.091124
v 0.020222 0.651014 0.100311
v 0.057085 0.606323 0.097135
v 0.069180 0.647647 0.104740
v 0.020222 0.651014 0.100311
v 0.034539 0.608856 0.091124
v -0.004297 0.667682 0.092129
v 0.168252 0.683504 0.093038
v 0.214747 0.626413 0.050545
v 0.209571 0.487467 0.075702
v 0.205750 0.691407 0.034803
v 0.214747 0.626413 0.050545
v 0.168252 0.683504 0.093038
v 0.209571 0.487467 0.075702
v 0.132219 0.586724 0.111312
v 0.168252 0.683504 0.093038
v -0.004297 0.667682 0.092129
v 0.034539 0.608856 0.091124
v -0.037499 0.598092 0.097631
v -0.037499 0.598092 0.097631
v -0.060699 0.696229 0.075212
v -0.004297 0.667682 0.092129
v 0.626496 1.016801 -0.052708
v 0.488804 1.025118 -0.015384
v 0.613331 1.040327 -0.081078
v 0.481742 1.061655 -0.040742
v 0.408806 1.041213 -0.073991
v 0.407778 1.040780 -0.074837
v 0.421431 1.059368 -0.036365
v 0.407778 1.040780 -0.074837
v 0.473864 1.052387 -0.076940
v 0.421431 1.059368 -0.036365
v 0.626496 1.016801 -0.052708
v 0.480210 0.984044 -0.044331
v 0.488804 1.025118 -0.015384
v 0.421431 1.059368 -0.036365
v 0.473864 1.052387 -0.076940
v 0.481742 1.061655 -0.040742
v 0.424058 0.989565 -0.033731
v 0.431128 1.013762 -0.012864
v 0.480210 0.984044 -0.044331
v 0.480210 0.984044 -0.044331
v 0.431128 1.013762 -0.012864
v 0.488804 1.025118 -0.015384
v 0.481742 1.061655 -0.040742
v 0.473864 1.052387 -0.076940
v 0.613331 1.040327 -0.081078
v 0.109014 0.662642 0.106326
v 0.057085 0.606323 0.097135
v 0.069180 0.647647 0.104740
v 0.109014 0.662642 0.106326
v 0.168252 0.683504 0.093038
v 0.132219 0.586724 0.111312
v 0.132219 0.586724 0.111312
v 0.057085 0.606323 0.097135
v 0.109014 0.662642 0.106326
v 0.198970 1.084615 -0.024344
v 0.172628 1.083407 -0.023910
v 0.205273 1.065123 -0.056662
v 0.181356 1.060576 -0.054694
v 0.274267 1.070213 -0.025490
v 0.316771 1.036940 -0.074506
v 0.408806 1.041213 -0.073991
v 0.274267 1.070213 -0.025490
v 0.205273 1.065123 -0.056662
v 0.316771 1.036940 -0.074506
v 0.198970 1.084615 -0.024344
v 0.205273 1.065123 -0.056662
v 0.274267 1.070213 -0.025490
v 0.274267 1.070213 -0.025490
v 0.408806 1.041213 -0.073991
v 0.421431 1.059368 -0.036365
v 0.488804 1.025118 -0.015384
v 0.431128 1.013762 -0.012864
v 0.429962 1.041666 -0.014231
v 0.481742 1.061655 -0.040742
v 0.429962 1.041666 -0.014231
v 0.421431 1.059368 -0.036365
v 0.429962 1.041666 -0.014231
v 0.481742 1.061655 -0.040742
v 0.488804 1.025118 -0.015384
v -0.076725 0.760926 0.029815
v -0.047528 0.750061 0.093589
v -0.089298 0.706365 0.013960
v -0.060699 0.696229 0.075212
v -0.047528 0.750061 0.093589
v -0.004297 0.667682 0.092129
v -0.060699 0.696229 0.075212
v 0.226629 0.952318 -0.024580
v 0.234764 0.943423 0.031505
v 0.424058 0.989565 -0.033731
v 0.205750 0.691407 0.034803
v 0.168252 0.683504 0.093038
v 0.196188 0.753954 0.044791
v 0.155449 0.745486 0.104769
v 0.168252 0.683504 0.093038
v 0.109014 0.662642 0.106326
v 0.155449 0.745486 0.104769
v 0.429962 1.041666 -0.014231
v 0.431128 1.013762 -0.012864
v 0.344131 1.054200 0.011768
v 0.333901 1.003362 0.022728
v 0.333901 1.003362 0.022728
v 0.424058 0.989565 -0.033731
v 0.234764 0.943423 0.031505
v 0.344131 1.054200 0.011768
v 0.421431 1.059368 -0.036365
v 0.429962 1.041666 -0.014231
v 0.431128 1.013762 -0.012864
v 0.424058 0.989565 -0.033731
v 0.333901 1.003362 0.022728
v 0.344131 1.054200 0.011768
v 0.274267 1.070213 -0.025490
v 0.421431 1.059368 -0.036365
v 0.051731 0.745889 0.126223
v 0.155449 0.745486 0.104769
v 0.069180 0.647647 0.104740
v 0.109014 0.662642 0.106326
v 0.020222 0.651014 0.100311
v -0.004297 0.667682 0.092129
v 0.051731 0.745889 0.126223
v -0.047528 0.750061 0.093589
v 0.051731 0.745889 0.126223
v 0.069180 0.647647 0.104740
v 0.020222 0.651014 0.100311
v 0.206745 1.086259 0.005388
v 0.180972 1.084992 0.013258
v 0.198970 1.084615 -0.024344
v 0.172628 1.083407 -0.023910
v 0.206745 1.086259 0.005388
v 0.198970 1.084615 -0.024344
v 0.274267 1.070213 -0.025490
v 0.333901 1.003362 0.022728
v 0.239444 1.027886 0.040116
v 0.344131 1.054200 0.011768
v 0.215101 1.074530 0.030788
v 0.333901 1.003362 0.022728
v 0.222612 0.983494 0.061784
v 0.239444 1.027886 0.040116
v 0.333901 1.003362 0.022728
v 0.234764 0.943423 0.031505
v 0.222612 0.983494 0.061784
v 0.274267 1.070213 -0.025490
v 0.215101 1.074530 0.030788
v 0.206745 1.086259 0.005388
v 0.344131 1.054200 0.011768
v 0.215101 1.074530 0.030788
v 0.274267 1.070213 -0.025490
v 0.215101 1.074530 0.030788
v 0.196367 1.061985 0.044430
v 0.206745 1.086259 0.005388
v 0.180972 1.084992 0.013258
v 0.196367 1.061985 0.044430
v 0.239444 1.027886 0.040116
v 0.222612 0.983494 0.061784
v 0.196367 1.061985 0.044430
v 0.215101 1.074530 0.030788
v 0.239444 1.027886 0.040116
v 0.217024 0.050309 -0.073458
v 0.160871 0.052806 -0.074572
v 0.214617 0.012530 -0.070016
v 0.158463 0.015027 -0.071130
v 0.203691 0.092093 -0.071467
v 0.171181 0.093538 -0.072113
v 0.217024 0.050309 -0.073458
v 0.160871 0.052806 -0.074572
v -0.186835 0.030845 -0.063941
v -0.129644 0.031640 -0.064278
v -0.187671 0.068802 -0.063349
v -0.130480 0.069597 -0.063687
v 0.215652 0.092427 -0.042430
v 0.203691 0.092093 -0.071467
v 0.217024 0.050309 -0.073458
v -0.187671 0.068802 -0.063349
v -0.130480 0.069597 -0.063687
v -0.185517 0.108060 -0.051059
v -0.142173 0.109260 -0.057047
v 0.160871 0.052806 -0.074572
v 0.171181 0.093538 -0.072113
v 0.159243 0.094948 -0.035320
v -0.131075 0.106395 -0.020181
v -0.142173 0.109260 -0.057047
v -0.130480 0.069597 -0.063687
v -0.186371 0.107297 -0.027958
v -0.187671 0.068802 -0.063349
v -0.185517 0.108060 -0.051059
v 0.214617 0.012530 -0.070016
v 0.158463 0.015027 -0.071130
v 0.223553 0.012230 0.048672
v 0.142816 0.015832 0.047241
v 0.215652 0.092427 -0.042430
v 0.217024 0.050309 -0.073458
v 0.206594 0.092061 -0.006394
v 0.225233 0.040136 0.049152
v 0.160871 0.052806 -0.074572
v 0.144496 0.043738 0.047719
v 0.158463 0.015027 -0.071130
v 0.142816 0.015832 0.047241
v 0.144496 0.043738 0.047719
v 0.160871 0.052806 -0.074572
v 0.164233 0.093944 -0.007234
v 0.159243 0.094948 -0.035320
v 0.223553 0.012230 0.048672
v 0.225233 0.040136 0.049152
v 0.214617 0.012530 -0.070016
v 0.217024 0.050309 -0.073458
v -0.130480 0.069597 -0.063687
v -0.129644 0.031640 -0.064278
v -0.120830 0.044555 0.057985
v -0.119220 0.016652 0.056867
v -0.129644 0.031640 -0.064278
v -0.186835 0.030845 -0.063941
v -0.119220 0.016652 0.056867
v -0.200017 0.015513 0.057736
v -0.130480 0.069597 -0.063687
v -0.120830 0.044555 0.057985
v -0.131075 0.106395 -0.020181
v -0.136777 0.102684 0.006789
v -0.200017 0.015513 0.057736
v -0.186835 0.030845 -0.063941
v -0.200641 0.043429 0.058845
v -0.187671 0.068802 -0.063349
v -0.200641 0.043429 0.058845
v -0.187671 0.068802 -0.063349
v -0.178191 0.102108 0.007034
v -0.186371 0.107297 -0.027958
v 0.203304 0.012107 0.099324
v 0.223553 0.012230 0.048672
v 0.157027 0.014171 0.098504
v 0.142816 0.015832 0.047241
v 0.206594 0.092061 -0.006394
v 0.204983 0.040013 0.099804
v 0.164233 0.093944 -0.007234
v 0.158707 0.042077 0.098983
v 0.204983 0.040013 0.099804
v 0.225233 0.040136 0.049152
v 0.203304 0.012107 0.099324
v 0.223553 0.012230 0.048672
v 0.144496 0.043738 0.047719
v 0.158707 0.042077 0.098983
v 0.142816 0.015832 0.047241
v 0.157027 0.014171 0.098504
v 0.158707 0.042077 0.098983
v 0.204983 0.040013 0.099804
v 0.157027 0.014171 0.098504
v 0.203304 0.012107 0.099324
v 0.158707 0.042077 0.098983
v 0.144496 0.043738 0.047719
v 0.164233 0.093944 -0.007234
v 0.204983 0.040013 0.099804
v 0.206594 0.092061 -0.006394
v 0.225233 0.040136 0.049152
v -0.134356 0.014351 0.107194
v -0.119220 0.016652 0.056867
v -0.181652 0.013683 0.107703
v -0.200017 0.015513 0.057736
v -0.119220 0.016652 0.056867
v -0.134356 0.014351 0.107194
v -0.120830 0.044555 0.057985
v -0.134981 0.042267 0.108302
v -0.181652 0.013683 0.107703
v -0.200017 0.015513 0.057736
v -0.181291 0.041613 0.108799
v -0.200641 0.043429 0.058845
v -0.134356 0.014351 0.107194
v -0.181652 0.013683 0.107703
v -0.134981 0.042267 0.108302
v -0.181291 0.041613 0.108799
v -0.136777 0.102684 0.006789
v -0.134981 0.042267 0.108302
v -0.178191 0.102108 0.007034
v -0.181291 0.041613 0.108799
v -0.134981 0.042267 0.108302
v -0.136777 0.102684 0.006789
v -0.120830 0.044555 0.057985
v -0.181291 0.041613 0.108799
v -0.200641 0.043429 0.058845
v -0.178191 0.102108 0.007034
v 0.162923 0.790101 -0.017598
v 0.059534 0.792812 -0.035915
v 0.169835 0.763053 -0.018119
v 0.065755 0.768977 -0.039321
v -0.040039 0.767783 -0.029679
v 0.065755 0.768977 -0.039321
v -0.044413 0.794921 -0.019664
v 0.059534 0.792812 -0.035915
v 0.055676 0.865616 -0.046235
v -0.053336 0.867794 -0.031133
v 0.059534 0.792812 -0.035915
v -0.044413 0.794921 -0.019664
v 0.059534 0.792812 -0.035915
v 0.162923 0.790101 -0.017598
v 0.055676 0.865616 -0.046235
v 0.165688 0.862591 -0.038265
v 0.060247 1.259887 -0.021289
v 0.110586 1.254725 -0.015551
v 0.064663 1.282799 0.004498
v 0.064663 1.282799 0.004498
v 0.013703 1.257187 -0.005047
v 0.060247 1.259887 -0.021289
v -0.338297 1.004263 -0.087964
v -0.342853 1.055617 -0.082580
v -0.487162 1.018316 -0.099506
v -0.342853 1.055617 -0.082580
v -0.338297 1.004263 -0.087964
v -0.276693 1.044620 -0.078969
v -0.277790 1.013457 -0.071401
v -0.276693 1.044620 -0.078969
v -0.338297 1.004263 -0.087964
v -0.338297 1.004263 -0.087964
v -0.487162 1.018316 -0.099506
v -0.489715 1.003246 -0.071345
v -0.342853 1.055617 -0.082580
v -0.483183 1.045729 -0.079939
v -0.487162 1.018316 -0.099506
v 0.060247 1.259887 -0.021289
v 0.013703 1.257187 -0.005047
v 0.057638 1.221522 -0.030286
v 0.010194 1.231353 -0.009415
v 0.110586 1.254725 -0.015551
v 0.060247 1.259887 -0.021289
v 0.110082 1.224092 -0.018554
v 0.057638 1.221522 -0.030286
v 0.064663 1.282799 0.004498
v 0.022341 1.280765 0.029426
v 0.013703 1.257187 -0.005047
v 0.064663 1.282799 0.004498
v 0.110586 1.254725 -0.015551
v 0.112484 1.278606 0.020412
v 0.064663 1.282799 0.004498
v 0.112484 1.278606 0.020412
v 0.067507 1.288608 0.023352
v 0.064663 1.282799 0.004498
v 0.067507 1.288608 0.023352
v 0.022341 1.280765 0.029426
v -0.275574 1.014984 -0.069289
v -0.180214 1.000184 -0.057226
v -0.274456 1.046156 -0.076877
v -0.182573 1.042471 -0.071767
v -0.276693 1.044620 -0.078969
v -0.277790 1.013457 -0.071401
v -0.274456 1.046156 -0.076877
v -0.275574 1.014984 -0.069289
v 0.059542 0.996134 -0.056832
v -0.031268 0.993443 -0.051227
v 0.055676 0.865616 -0.046235
v -0.053336 0.867794 -0.031133
v 0.055676 0.865616 -0.046235
v 0.165688 0.862591 -0.038265
v 0.059542 0.996134 -0.056832
v 0.150317 0.990775 -0.057200
v 0.112484 1.278606 0.020412
v 0.110586 1.254725 -0.015551
v 0.134778 1.255354 0.022146
v -0.102945 0.989797 -0.037165
v -0.182573 1.042471 -0.071767
v -0.180214 1.000184 -0.057226
v -0.348491 0.995416 -0.037877
v -0.338297 1.004263 -0.087964
v -0.489715 1.003246 -0.071345
v -0.348491 0.995416 -0.037877
v -0.489715 1.003246 -0.071345
v -0.486335 1.027043 -0.046489
v -0.084796 0.795671 0.036743
v -0.076725 0.760926 0.029815
v -0.044413 0.794921 -0.019664
v -0.040039 0.767783 -0.029679
v 0.162923 0.790101 -0.017598
v 0.169835 0.763053 -0.018119
v 0.201525 0.789016 0.039596
v 0.196188 0.753954 0.044791
v 0.150317 0.990775 -0.057200
v 0.165688 0.862591 -0.038265
v 0.221710 0.985346 -0.048678
v 0.226629 0.952318 -0.024580
v 0.110082 1.224092 -0.018554
v 0.057638 1.221522 -0.030286
v 0.105510 1.195374 -0.015587
v 0.057303 1.189888 -0.024731
v 0.057303 1.189888 -0.024731
v 0.057638 1.221522 -0.030286
v 0.013408 1.197579 -0.006377
v 0.010194 1.231353 -0.009415
v 0.110586 1.254725 -0.015551
v 0.110082 1.224092 -0.018554
v 0.134778 1.255354 0.022146
v 0.133592 1.235910 0.025662
v 0.001525 1.258545 0.035471
v 0.013703 1.257187 -0.005047
v 0.022341 1.280765 0.029426
v -0.292930 1.002443 -0.027332
v -0.277790 1.013457 -0.071401
v -0.348491 0.995416 -0.037877
v -0.338297 1.004263 -0.087964
v -0.180214 1.000184 -0.057226
v -0.103253 0.951046 -0.015157
v -0.102945 0.989797 -0.037165
v -0.292930 1.002443 -0.027332
v -0.275574 1.014984 -0.069289
v -0.277790 1.013457 -0.071401
v -0.180214 1.000184 -0.057226
v -0.275574 1.014984 -0.069289
v -0.292930 1.002443 -0.027332
v -0.103253 0.951046 -0.015157
v -0.180214 1.000184 -0.057226
v -0.292930 1.002443 -0.027332
v -0.182573 1.042471 -0.071767
v -0.102945 0.989797 -0.037165
v -0.071188 1.075306 -0.053676
v -0.044710 1.073329 -0.048391
v -0.071188 1.075306 -0.053676
v -0.102945 0.989797 -0.037165
v -0.483183 1.045729 -0.079939
v -0.342853 1.055617 -0.082580
v -0.351816 1.071737 -0.048205
v 0.221710 0.985346 -0.048678
v 0.181356 1.060576 -0.054694
v 0.179563 1.050696 -0.044677
v 0.179563 1.050696 -0.044677
v 0.128119 1.048599 -0.043708
v 0.221710 0.985346 -0.048678
v 0.150317 0.990775 -0.057200
v -0.102945 0.989797 -0.037165
v -0.103253 0.951046 -0.015157
v -0.031268 0.993443 -0.051227
v -0.053336 0.867794 -0.031133
v 0.128119 1.048599 -0.043708
v 0.059542 0.996134 -0.056832
v 0.150317 0.990775 -0.057200
v -0.031268 0.993443 -0.051227
v 0.059542 0.996134 -0.056832
v -0.004084 1.051738 -0.039402
v 0.001525 1.258545 0.035471
v 0.002298 1.239054 0.038793
v 0.013703 1.257187 -0.005047
v 0.010194 1.231353 -0.009415
v -0.290539 1.070361 -0.043827
v -0.276693 1.044620 -0.078969
v -0.274456 1.046156 -0.076877
v -0.290539 1.070361 -0.043827
v -0.342853 1.055617 -0.082580
v -0.276693 1.044620 -0.078969
v -0.351816 1.071737 -0.048205
v -0.342853 1.055617 -0.082580
v -0.290539 1.070361 -0.043827
v -0.054259 1.056251 -0.037064
v -0.044710 1.073329 -0.048391
v -0.102945 0.989797 -0.037165
v -0.102945 0.989797 -0.037165
v -0.031268 0.993443 -0.051227
v -0.054259 1.056251 -0.037064
v -0.004084 1.051738 -0.039402
v 0.206534 0.865846 0.032770
v 0.165688 0.862591 -0.038265
v 0.201525 0.789016 0.039596
v 0.162923 0.790101 -0.017598
v 0.226629 0.952318 -0.024580
v 0.165688 0.862591 -0.038265
v 0.206534 0.865846 0.032770
v 0.112484 1.278606 0.020412
v 0.076311 1.287945 0.086401
v 0.067507 1.288608 0.023352
v 0.134778 1.255354 0.022146
v 0.121878 1.269048 0.075710
v 0.112484 1.278606 0.020412
v 0.029667 1.271924 0.083974
v 0.022341 1.280765 0.029426
v 0.076311 1.287945 0.086401
v 0.067507 1.288608 0.023352
v 0.076311 1.287945 0.086401
v 0.022341 1.280765 0.029426
v 0.076311 1.287945 0.086401
v 0.112484 1.278606 0.020412
v 0.121878 1.269048 0.075710
v 0.110082 1.224092 -0.018554
v 0.105510 1.195374 -0.015587
v 0.125732 1.191230 0.023356
v 0.022341 1.280765 0.029426
v 0.029667 1.271924 0.083974
v 0.001525 1.258545 0.035471
v -0.483183 1.045729 -0.079939
v -0.351816 1.071737 -0.048205
v -0.486335 1.027043 -0.046489
v -0.358158 1.041233 -0.017351
v -0.290539 1.070361 -0.043827
v -0.274456 1.046156 -0.076877
v -0.138980 1.086242 -0.026252
v -0.274456 1.046156 -0.076877
v -0.182573 1.042471 -0.071767
v -0.138980 1.086242 -0.026252
v -0.182573 1.042471 -0.071767
v -0.071188 1.075306 -0.053676
v -0.138980 1.086242 -0.026252
v -0.351816 1.071737 -0.048205
v -0.298814 1.057150 -0.018705
v -0.358158 1.041233 -0.017351
v -0.290539 1.070361 -0.043827
v -0.298814 1.057150 -0.018705
v -0.351816 1.071737 -0.048205
v -0.358158 1.041233 -0.017351
v -0.348491 0.995416 -0.037877
v -0.486335 1.027043 -0.046489
v -0.298814 1.057150 -0.018705
v -0.299771 1.029983 -0.012108
v -0.358158 1.041233 -0.017351
v -0.348491 0.995416 -0.037877
v -0.299771 1.029983 -0.012108
v -0.292930 1.002443 -0.027332
v -0.358158 1.041233 -0.017351
v -0.299771 1.029983 -0.012108
v -0.348491 0.995416 -0.037877
v -0.084796 0.795671 0.036743
v -0.044413 0.794921 -0.019664
v -0.086484 0.872807 0.042311
v -0.053336 0.867794 -0.031133
v -0.086484 0.872807 0.042311
v -0.053336 0.867794 -0.031133
v -0.103253 0.951046 -0.015157
v 0.006900 1.194938 0.040130
v 0.010194 1.231353 -0.009415
v 0.001762 1.204370 0.050781
v 0.002298 1.239054 0.038793
v 0.105510 1.195374 -0.015587
v 0.057303 1.189888 -0.024731
v 0.102810 1.170243 0.023786
v 0.056993 1.160687 -0.019603
v 0.135016 1.201180 0.037455
v 0.133592 1.235910 0.025662
v 0.125732 1.191230 0.023356
v 0.110082 1.224092 -0.018554
v 0.013408 1.197579 -0.006377
v 0.024136 1.169967 0.029668
v 0.057303 1.189888 -0.024731
v 0.056993 1.160687 -0.019603
v 0.133592 1.235910 0.025662
v 0.120795 1.253327 0.086127
v 0.134778 1.255354 0.022146
v 0.121878 1.269048 0.075710
v 0.061853 1.180740 0.011585
v 0.102810 1.170243 0.023786
v 0.056993 1.160687 -0.019603
v 0.006900 1.194938 0.040130
v 0.013408 1.197579 -0.006377
v 0.010194 1.231353 -0.009415
v 0.121878 1.269048 0.075710
v 0.077078 1.272848 0.095677
v 0.076311 1.287945 0.086401
v 0.024136 1.169967 0.029668
v 0.061853 1.180740 0.011585
v 0.056993 1.160687 -0.019603
v -0.003787 1.192903 0.042438
v 0.006900 1.194938 0.040130
v 0.001762 1.204370 0.050781
v 0.135016 1.201180 0.037455
v 0.125732 1.191230 0.023356
v 0.137306 1.189525 0.028328
v 0.076311 1.287945 0.086401
v 0.077078 1.272848 0.095677
v 0.029667 1.271924 0.083974
v 0.024136 1.169967 0.029668
v 0.024153 1.092408 -0.012968
v 0.061853 1.180740 0.011585
v 0.064003 1.090992 -0.027433
v 0.061853 1.180740 0.011585
v 0.064003 1.090992 -0.027433
v 0.102810 1.170243 0.023786
v 0.106041 1.090462 -0.015634
v -0.044710 1.073329 -0.048391
v -0.026943 1.096018 -0.018393
v -0.071188 1.075306 -0.053676
v -0.062083 1.098416 -0.023717
v 0.157303 1.086806 -0.016393
v 0.106041 1.090462 -0.015634
v 0.179563 1.050696 -0.044677
v 0.128119 1.048599 -0.043708
v 0.179563 1.050696 -0.044677
v 0.181356 1.060576 -0.054694
v 0.157303 1.086806 -0.016393
v 0.172628 1.083407 -0.023910
v 0.064003 1.090992 -0.027433
v 0.059542 0.996134 -0.056832
v 0.106041 1.090462 -0.015634
v 0.128119 1.048599 -0.043708
v -0.108855 0.942536 0.043021
v -0.103253 0.951046 -0.015157
v -0.292930 1.002443 -0.027332
v -0.138980 1.086242 -0.026252
v -0.071188 1.075306 -0.053676
v -0.062083 1.098416 -0.023717
v 0.024153 1.092408 -0.012968
v -0.004084 1.051738 -0.039402
v 0.064003 1.090992 -0.027433
v 0.059542 0.996134 -0.056832
v 0.206534 0.865846 0.032770
v 0.234764 0.943423 0.031505
v 0.226629 0.952318 -0.024580
v -0.103253 0.951046 -0.015157
v -0.108855 0.942536 0.043021
v -0.086484 0.872807 0.042311
v 0.077078 1.272848 0.095677
v 0.077554 1.263007 0.101545
v 0.029667 1.271924 0.083974
v 0.031632 1.255462 0.095044
v 0.121878 1.269048 0.075710
v 0.120795 1.253327 0.086127
v 0.077078 1.272848 0.095677
v 0.077554 1.263007 0.101545
v 0.002298 1.239054 0.038793
v 0.001525 1.258545 0.035471
v 0.031632 1.255462 0.095044
v 0.029667 1.271924 0.083974
v 0.133592 1.235910 0.025662
v 0.135016 1.201180 0.037455
v 0.130181 1.205364 0.065794
v -0.054259 1.056251 -0.037064
v -0.028176 1.091212 -0.010352
v -0.044710 1.073329 -0.048391
v -0.026943 1.096018 -0.018393
v -0.054259 1.056251 -0.037064
v -0.004084 1.051738 -0.039402
v -0.028176 1.091212 -0.010352
v 0.024153 1.092408 -0.012968
v 0.196188 0.753954 0.044791
v 0.155449 0.745486 0.104769
v 0.201525 0.789016 0.039596
v 0.163890 0.787880 0.105879
v -0.084796 0.795671 0.036743
v -0.048382 0.792814 0.103764
v -0.076725 0.760926 0.029815
v -0.047528 0.750061 0.093589
v -0.047528 0.750061 0.093589
v -0.048382 0.792814 0.103764
v 0.051731 0.745889 0.126223
v 0.163890 0.787880 0.105879
v 0.155449 0.745486 0.104769
v 0.051731 0.745889 0.126223
v 0.102810 1.170243 0.023786
v 0.127326 1.160704 0.049520
v 0.105510 1.195374 -0.015587
v 0.125732 1.191230 0.023356
v 0.120795 1.253327 0.086127
v 0.133592 1.235910 0.025662
v 0.120671 1.224745 0.099529
v 0.130181 1.205364 0.065794
v 0.135016 1.201180 0.037455
v 0.137306 1.189525 0.028328
v 0.127326 1.160704 0.049520
v 0.014564 1.208134 0.077355
v 0.001762 1.204370 0.050781
v 0.002298 1.239054 0.038793
v 0.125732 1.191230 0.023356
v 0.127326 1.160704 0.049520
v 0.137306 1.189525 0.028328
v -0.216322 1.077209 0.008645
v -0.210198 1.031801 0.028193
v -0.298814 1.057150 -0.018705
v -0.299771 1.029983 -0.012108
v -0.210198 1.031801 0.028193
v -0.292930 1.002443 -0.027332
v -0.299771 1.029983 -0.012108
v -0.210198 1.031801 0.028193
v -0.108855 0.942536 0.043021
v -0.292930 1.002443 -0.027332
v -0.216322 1.077209 0.008645
v -0.298814 1.057150 -0.018705
v -0.290539 1.070361 -0.043827
v -0.290539 1.070361 -0.043827
v -0.138980 1.086242 -0.026252
v -0.216322 1.077209 0.008645
v -0.138980 1.086242 -0.026252
v -0.062083 1.098416 -0.023717
v -0.071551 1.105772 0.005657
v 0.031632 1.255462 0.095044
v 0.077554 1.263007 0.101545
v 0.033468 1.226833 0.108249
v 0.078550 1.225759 0.118023
v 0.001762 1.204370 0.050781
v 0.014564 1.208134 0.077355
v 0.009750 1.163519 0.061278
v 0.013900 1.173306 0.074260
v 0.120671 1.224745 0.099529
v 0.078550 1.225759 0.118023
v 0.120795 1.253327 0.086127
v 0.077554 1.263007 0.101545
v 0.127326 1.160704 0.049520
v 0.128380 1.171569 0.068517
v 0.135016 1.201180 0.037455
v 0.130181 1.205364 0.065794
v 0.013408 1.197579 -0.006377
v 0.006900 1.194938 0.040130
v 0.024136 1.169967 0.029668
v 0.009750 1.163519 0.061278
v 0.033468 1.226833 0.108249
v 0.014564 1.208134 0.077355
v 0.031632 1.255462 0.095044
v 0.002298 1.239054 0.038793
v 0.009750 1.163519 0.061278
v 0.006900 1.194938 0.040130
v -0.003787 1.192903 0.042438
v 0.024136 1.169967 0.029668
v 0.009750 1.163519 0.061278
v 0.010000 1.145925 0.054797
v 0.009750 1.163519 0.061278
v -0.003787 1.192903 0.042438
v 0.001762 1.204370 0.050781
v 0.124078 1.146324 0.046269
v 0.127326 1.160704 0.049520
v 0.102810 1.170243 0.023786
v 0.119259 1.205831 0.101296
v 0.120671 1.224745 0.099529
v 0.130181 1.205364 0.065794
v 0.009342 1.101512 0.025106
v 0.024153 1.092408 -0.012968
v 0.010000 1.145925 0.054797
v 0.024136 1.169967 0.029668
v 0.124078 1.146324 0.046269
v 0.102810 1.170243 0.023786
v 0.124773 1.098770 0.021346
v 0.106041 1.090462 -0.015634
v -0.026943 1.096018 -0.018393
v -0.034083 1.099541 0.018839
v -0.062083 1.098416 -0.023717
v -0.071551 1.105772 0.005657
v 0.124773 1.098770 0.021346
v 0.106041 1.090462 -0.015634
v 0.158269 1.088307 0.026374
v 0.157303 1.086806 -0.016393
v 0.172628 1.083407 -0.023910
v 0.180972 1.084992 0.013258
v 0.157303 1.086806 -0.016393
v 0.158269 1.088307 0.026374
v 0.201525 0.789016 0.039596
v 0.163890 0.787880 0.105879
v 0.206534 0.865846 0.032770
v 0.177113 0.864982 0.105478
v 0.234764 0.943423 0.031505
v 0.206534 0.865846 0.032770
v 0.177113 0.864982 0.105478
v 0.077951 1.213029 0.116946
v 0.078550 1.225759 0.118023
v 0.119259 1.205831 0.101296
v 0.120671 1.224745 0.099529
v 0.078550 1.225759 0.118023
v 0.077951 1.213029 0.116946
v 0.033468 1.226833 0.108249
v 0.034995 1.207848 0.109723
v 0.130181 1.205364 0.065794
v 0.128380 1.171569 0.068517
v 0.119259 1.205831 0.101296
v 0.121831 1.182096 0.104329
v 0.128380 1.171569 0.068517
v 0.127326 1.160704 0.049520
v 0.122366 1.143122 0.068226
v 0.122366 1.143122 0.068226
v 0.127326 1.160704 0.049520
v 0.124078 1.146324 0.046269
v 0.014564 1.208134 0.077355
v 0.033468 1.226833 0.108249
v 0.034995 1.207848 0.109723
v -0.089287 1.097785 0.033763
v -0.112031 1.063364 0.046608
v -0.216322 1.077209 0.008645
v -0.210198 1.031801 0.028193
v -0.028176 1.091212 -0.010352
v -0.026224 1.092690 0.032382
v -0.026943 1.096018 -0.018393
v -0.034083 1.099541 0.018839
v -0.026224 1.092690 0.032382
v -0.028176 1.091212 -0.010352
v 0.009342 1.101512 0.025106
v 0.024153 1.092408 -0.012968
v -0.210198 1.031801 0.028193
v -0.091265 0.987630 0.071300
v -0.108855 0.942536 0.043021
v -0.112031 1.063364 0.046608
v -0.091265 0.987630 0.071300
v -0.210198 1.031801 0.028193
v -0.071551 1.105772 0.005657
v -0.089287 1.097785 0.033763
v -0.138980 1.086242 -0.026252
v -0.138980 1.086242 -0.026252
v -0.089287 1.097785 0.033763
v -0.216322 1.077209 0.008645
v -0.086484 0.872807 0.042311
v -0.052763 0.870443 0.112965
v -0.084796 0.795671 0.036743
v -0.048382 0.792814 0.103764
v -0.052763 0.870443 0.112965
v -0.086484 0.872807 0.042311
v -0.108855 0.942536 0.043021
v 0.014564 1.208134 0.077355
v 0.034995 1.207848 0.109723
v 0.013900 1.173306 0.074260
v 0.031689 1.184255 0.113344
v 0.018507 1.145609 0.078613
v 0.009750 1.163519 0.061278
v 0.013900 1.173306 0.074260
v 0.010000 1.145925 0.054797
v 0.009750 1.163519 0.061278
v 0.018507 1.145609 0.078613
v 0.100289 1.092239 0.053715
v 0.100144 1.111901 0.062578
v 0.124773 1.098770 0.021346
v 0.124078 1.146324 0.046269
v 0.009342 1.101512 0.025106
v 0.010000 1.145925 0.054797
v 0.036186 1.094584 0.055772
v 0.036222 1.111677 0.067357
v 0.234764 0.943423 0.031505
v 0.177113 0.864982 0.105478
v 0.222612 0.983494 0.061784
v 0.175818 0.930477 0.116348
v 0.158269 1.088307 0.026374
v 0.179416 1.048017 0.065024
v 0.124773 1.098770 0.021346
v 0.100289 1.092239 0.053715
v 0.179416 1.048017 0.065024
v 0.158269 1.088307 0.026374
v 0.196367 1.061985 0.044430
v 0.180972 1.084992 0.013258
v -0.071551 1.105772 0.005657
v -0.034083 1.099541 0.018839
v -0.089287 1.097785 0.033763
v -0.057105 1.077737 0.054035
v 0.222612 0.983494 0.061784
v 0.179416 1.048017 0.065024
v 0.196367 1.061985 0.044430
v -0.057105 1.077737 0.054035
v -0.091265 0.987630 0.071300
v -0.112031 1.063364 0.046608
v -0.112031 1.063364 0.046608
v -0.089287 1.097785 0.033763
v -0.057105 1.077737 0.054035
v 0.034995 1.207848 0.109723
v 0.077951 1.213029 0.116946
v 0.031689 1.184255 0.113344
v 0.060593 1.184954 0.127854
v 0.097708 1.183921 0.123327
v 0.060593 1.184954 0.127854
v 0.087729 1.187937 0.136268
v 0.073032 1.188287 0.137739
v 0.112369 1.133493 0.098673
v 0.122366 1.143122 0.068226
v 0.100144 1.111901 0.062578
v 0.124078 1.146324 0.046269
v 0.077951 1.213029 0.116946
v 0.119259 1.205831 0.101296
v 0.097708 1.183921 0.123327
v 0.121831 1.182096 0.104329
v 0.122366 1.143122 0.068226
v 0.112369 1.133493 0.098673
v 0.128380 1.171569 0.068517
v 0.121831 1.182096 0.104329
v 0.077951 1.213029 0.116946
v 0.087729 1.187937 0.136268
v 0.073032 1.188287 0.137739
v 0.073032 1.188287 0.137739
v 0.060593 1.184954 0.127854
v 0.077951 1.213029 0.116946
v 0.077951 1.213029 0.116946
v 0.097708 1.183921 0.123327
v 0.087729 1.187937 0.136268
v -0.034083 1.099541 0.018839
v -0.026224 1.092690 0.032382
v -0.057105 1.077737 0.054035
v -0.042481 1.052554 0.074749
v -0.091265 0.987630 0.071300
v -0.041195 0.935662 0.124237
v -0.108855 0.942536 0.043021
v -0.052763 0.870443 0.112965
v 0.009342 1.101512 0.025106
v 0.036186 1.094584 0.055772
v -0.026224 1.092690 0.032382
v -0.042481 1.052554 0.074749
v 0.222612 0.983494 0.061784
v 0.182308 0.990119 0.106567
v 0.179416 1.048017 0.065024
v -0.057105 1.077737 0.054035
v -0.042481 1.052554 0.074749
v -0.091265 0.987630 0.071300
v 0.175818 0.930477 0.116348
v 0.182308 0.990119 0.106567
v 0.222612 0.983494 0.061784
v 0.051731 0.745889 0.126223
v -0.048382 0.792814 0.103764
v 0.063999 0.862289 0.143141
v -0.052763 0.870443 0.112965
v 0.063999 0.862289 0.143141
v 0.177113 0.864982 0.105478
v 0.051731 0.745889 0.126223
v 0.163890 0.787880 0.105879
v 0.036222 1.111677 0.067357
v 0.010000 1.145925 0.054797
v 0.034965 1.135346 0.106414
v 0.018507 1.145609 0.078613
v 0.031689 1.184255 0.113344
v 0.034965 1.135346 0.106414
v 0.013900 1.173306 0.074260
v 0.018507 1.145609 0.078613
v 0.100289 1.092239 0.053715
v 0.068347 1.084651 0.074835
v 0.100144 1.111901 0.062578
v 0.069187 1.095503 0.078745
v 0.036222 1.111677 0.067357
v 0.069187 1.095503 0.078745
v 0.036186 1.094584 0.055772
v 0.068347 1.084651 0.074835
v 0.100289 1.092239 0.053715
v 0.179416 1.048017 0.065024
v 0.068347 1.084651 0.074835
v 0.068383 1.050975 0.100768
v 0.068347 1.084651 0.074835
v 0.068383 1.050975 0.100768
v 0.036186 1.094584 0.055772
v -0.042481 1.052554 0.074749
v -0.091265 0.987630 0.071300
v -0.039675 0.995393 0.113797
v -0.041195 0.935662 0.124237
v -0.042481 1.052554 0.074749
v -0.039675 0.995393 0.113797
v -0.091265 0.987630 0.071300
v 0.060593 1.184954 0.127854
v 0.097708 1.183921 0.123327
v 0.063123 1.130340 0.131238
v 0.092517 1.129634 0.128300
v 0.060593 1.184954 0.127854
v 0.063123 1.130340 0.131238
v 0.031689 1.184255 0.113344
v 0.034965 1.135346 0.106414
v 0.036222 1.111677 0.067357
v 0.034965 1.135346 0.106414
v 0.069187 1.095503 0.078745
v 0.063123 1.130340 0.131238
v 0.121831 1.182096 0.104329
v 0.112369 1.133493 0.098673
v 0.097708 1.183921 0.123327
v 0.092517 1.129634 0.128300
v 0.112369 1.133493 0.098673
v 0.100144 1.111901 0.062578
v 0.092517 1.129634 0.128300
v 0.069187 1.095503 0.078745
v 0.069187 1.095503 0.078745
v 0.063123 1.130340 0.131238
v 0.092517 1.129634 0.128300
v 0.067971 0.998504 0.130688
v 0.066648 0.935713 0.147826
v -0.039675 0.995393 0.113797
v -0.041195 0.935662 0.124237
v -0.039675 0.995393 0.113797
v -0.042481 1.052554 0.074749
v 0.067971 0.998504 0.130688
v 0.068383 1.050975 0.100768
v 0.066648 0.935713 0.147826
v 0.063999 0.862289 0.143141
v -0.041195 0.935662 0.124237
v -0.052763 0.870443 0.112965
v 0.175818 0.930477 0.116348
v 0.177113 0.864982 0.105478
v 0.066648 0.935713 0.147826
v 0.063999 0.862289 0.143141
v 0.067971 0.998504 0.130688
v 0.068383 1.050975 0.100768
v 0.182308 0.990119 0.106567
v 0.179416 1.048017 0.065024
v 0.182308 0.990119 0.106567
v 0.175818 0.930477 0.116348
v 0.067971 0.998504 0.130688
v 0.066648 0.935713 0.147826
vn -0.0779 -0.1463 -0.9862
vn -0.1164 -0.1086 -0.9872
vn 0.6325 -0.4205 -0.6505
vn -0.2685 -0.1320 -0.9542
vn 0.0085 -0.2732 -0.9619
vn -0.1708 -0.2878 -0.9423
vn -0.1588 -0.7949 -0.5855
vn -0.1155 -0.2536 -0.9604
vn 0.9189 -0.3943 -0.0116
vn -0.3745 0.6928 -0.6163
vn 0.2097 0.5477 -0.8100
vn -0.0107 -0.8812 -0.4726
vn -0.8019 -0.4824 -0.3524
vn 0.0472 -0.9989 -0.0050
vn -0.1813 -0.9726 0.1457
vn 0.3096 0.1146 0.9439
vn 0.2148 0.9474 -0.2372
vn 0.3085 0.9442 -0.1155
vn 0.2484 -0.9598 -0.1309
vn -0.2183 -0.9718 0.0888
vn -0.2896 0.7677 0.5716
vn 0.0486 -0.0807 -0.9956
vn 0.2053 0.1225 0.9710
vn 0.1033 0.9725 -0.2088
vn -0.0277 0.9823 -0.1853
vn 0.1748 -0.9771 0.1210
vn -0.3458 -0.7210 0.6005
vn -0.1313 0.0658 0.9892
vn -0.8755 -0.3270 0.3558
vn 0.9366 0.1333 -0.3241
vn -0.3182 0.0790 0.9447
vn 0.1666 0.8891 0.4263
vn 0.0569 -0.9983 -0.0099
vn 0.0999 0.1885 0.9770
vn -0.1767 0.8048 0.5666
vn 0.1714 -0.9805 0.0961
vn -0.2775 -0.9539 0.1147
vn -0.1494 -0.9354 0.3205
vn 0.4795 -0.6655 0.5720
vn 0.3788 0.1970 0.9042
vn 0.1976 -0.9545 0.2234
vn -0.0611 0.2582 0.9641
vn -0.3124 0.9385 -0.1470
vn 0.2189 -0.9631 0.1565
vn 0.4364 0.8350 0.3350
vn -0.2973 -0.2169 -0.9298
vn -0.0666 -0.9837 0.1670
vn 0.0439 0.2655 0.9631
vn -0.1467 0.9377 -0.3151
vn -0.2444 0.9211 -0.3031
vn -0.0073 0.9427 -0.3336
vn -0.9886 0.1501 -0.0093
vn 0.5648 0.1758 0.8063
vn -0.0513 0.9473 0.3164
vn -0.0694 -0.9846 0.1603
vn 0.1401 0.3026 0.9428
vn 0.3257 0.8814 0.3423
vn -0.1524 -0.9428 0.2964
vn -0.0314 -0.9332 0.3579
vn -0.5083 -0.8583 0.0700
vn -0.0160 -0.7109 0.7031
vn 0.4457 -0.8949 0.0225
vn 0.6527 -0.7328 0.1923
vn -0.6656 -0.7428 0.0716
vn -0.0692 -0.7537 -0.6536
vn 0.5968 -0.7817 -0.1813
vn -0.6444 -0.7307 -0.2256
vn -0.1455 0.1536 -0.9774
vn -0.9577 -0.0271 -0.2864
vn 0.1962 0.0311 -0.9801
vn 0.4404 -0.8869 -0.1394
vn 0.9539 -0.2033 -0.2209
vn 0.9179 0.1081 -0.3819
vn 0.2829 0.2039 -0.9372
vn 0.0147 -0.9016 -0.4323
vn -0.6166 -0.7627 -0.1955
vn -0.8540 0.1951 -0.4823
vn -0.2188 0.1421 -0.9654
vn 0.0523 0.2030 -0.9778
vn -0.2686 0.1138 -0.9565
vn 0.0137 0.1283 -0.9916
vn 0.3221 -0.0040 -0.9467
vn 0.0891 -0.1368 -0.9866
vn -0.0504 -0.0777 -0.9957
vn 0.8817 0.0907 -0.4630
vn -0.8961 -0.0200 -0.4435
vn 0.9057 -0.1961 -0.3757
vn -0.8388 0.1810 -0.5135
vn 0.1027 -0.1163 -0.9879
vn 0.3848 -0.4229 -0.8204
vn 0.0163 -0.1304 -0.9913
vn 0.5307 -0.0825 -0.8436
vn 0.0803 -0.1651 -0.9830
vn -0.0256 -0.1204 -0.9924
vn 0.9005 0.0674 -0.4295
vn -0.4705 0.0369 -0.8816
vn -0.8461 -0.1837 -0.5004
vn -0.8491 -0.1501 -0.5064
vn -0.3558 -0.3595 -0.8627
vn -0.8347 0.2213 -0.5043
vn -0.8501 0.1812 -0.4945
vn -0.4711 0.0304 -0.8815
vn -0.2707 0.0946 -0.9580
vn 0.8339 -0.3214 -0.4487
vn 0.8350 -0.3167 -0.4500
vn 0.1756 -0.1796 -0.9680
vn 0.2803 0.0794 -0.9566
vn 0.8908 0.1166 -0.4391
vn 0.5183 -0.0352 -0.8545
vn 0.0802 0.1332 -0.9878
vn -0.3304 -0.2204 -0.9177
vn -0.8471 -0.1831 -0.4990
vn -0.4721 0.0344 -0.8809
vn -0.0337 0.1033 -0.9941
vn 0.8399 -0.3141 -0.4427
vn 0.8886 -0.0912 0.4495
vn -0.9054 -0.1699 0.3890
vn 0.0707 -0.2370 0.9689
vn -0.8534 -0.2542 0.4551
vn 0.8440 -0.0174 0.5361
vn -0.1363 -0.1292 0.9822
vn 0.8213 -0.2533 0.5111
vn -0.9430 0.1013 0.3171
vn 0.7266 -0.3831 0.5704
vn -0.9129 0.1329 0.3859
vn -0.0647 0.1803 -0.9815
vn 0.5136 -0.4126 -0.7523
vn -0.2692 0.0761 -0.9601
vn 0.1743 0.0867 -0.9809
vn 0.5146 -0.0453 -0.8562
vn 0.2598 0.1676 -0.9510
vn 0.4783 0.0151 -0.8781
vn 0.8871 0.1129 -0.4476
vn -0.8365 0.2235 -0.5003
vn -0.8896 0.1929 0.4139
vn -0.1240 -0.1680 0.9780
vn -0.5416 0.1646 0.8243
vn 0.0896 0.4884 -0.8680
vn -0.8727 0.1630 0.4603
vn 0.9048 -0.3595 -0.2282
vn 0.8543 -0.2671 -0.4459
vn 0.8363 0.0099 0.5482
vn 0.5267 0.0373 0.8492
vn 0.0539 -0.1922 0.9799
vn 0.2352 0.4878 -0.8407
vn -0.0225 -0.9916 -0.1274
vn -0.0745 0.5435 -0.8361
vn -0.8531 -0.1474 -0.5005
vn -0.9077 -0.2047 -0.3663
vn 0.8503 0.0252 0.5256
vn -0.7766 0.3250 -0.5397
vn -0.9104 0.1607 -0.3813
vn -0.8453 0.2063 0.4929
vn -0.8377 0.2795 -0.4693
vn -0.8176 0.2240 -0.5305
vn -0.8517 -0.2767 0.4450
vn -0.0825 -0.0935 0.9922
vn 0.0221 -0.7645 -0.6442
vn 0.7246 -0.3936 0.5657
vn 0.0407 -0.0896 0.9951
vn 0.9127 0.0460 -0.4061
vn 0.9413 0.0494 -0.3341
vn -0.8864 -0.2487 0.3904
vn 0.8276 0.0700 0.5569
vn 0.9060 0.0904 -0.4135
vn 0.8937 0.1669 -0.4164
vn -0.9378 -0.1281 0.3227
vn 0.8816 -0.2452 0.4032
vn 0.8108 -0.3540 0.4661
vn -0.0070 -0.1006 -0.9949
vn -0.6495 0.0107 0.7603
vn -0.2003 -0.1178 -0.9726
vn -0.1113 0.3101 -0.9442
vn -0.0844 0.3086 -0.9474
vn -0.3110 -0.0595 -0.9486
vn -0.0074 -0.9316 -0.3633
vn 0.0397 0.7026 -0.7105
vn -0.8055 0.2720 -0.5264
vn 0.1003 -0.0715 0.9924
vn 0.0437 -0.0934 0.9947
vn 0.8906 -0.3906 0.2327
vn -0.5324 0.1686 0.8295
vn -0.1790 -0.9206 -0.3469
vn 0.1461 -0.8835 -0.4450
vn 0.1606 -0.8553 -0.4926
vn -0.6703 0.5357 0.5136
vn -0.1449 -0.5972 -0.7889
vn 0.2138 -0.8183 0.5335
vn -0.1822 -0.9726 0.1447
vn 0.9132 0.1923 -0.3594
vn -0.1989 -0.0548 0.9785
vn -0.0994 -0.1104 0.9889
vn -0.9455 -0.3120 0.0934
vn 0.4832 0.0633 0.8732
vn -0.7807 0.2175 0.5859
vn -0.8179 0.3675 0.4427
vn -0.4701 0.0894 0.8780
vn -0.1901 -0.1365 -0.9722
vn -0.0604 -0.1117 -0.9919
vn -0.1576 -0.1988 0.9673
vn -0.4987 -0.3429 0.7961
vn 0.7325 0.0948 0.6741
vn 0.8001 0.2435 0.5482
vn 0.4294 0.0106 0.9031
vn 0.0842 0.0386 0.9957
vn -0.2019 0.1725 0.9641
vn 0.2695 0.6909 0.6709
vn 0.0300 -0.9041 0.4262
vn -0.1718 0.9095 -0.3785
vn 0.1775 -0.5915 0.7866
vn -0.0540 0.9701 -0.2366
vn 0.0752 -0.6637 0.7442
vn 0.1509 -0.5904 0.7929
vn 0.0754 0.9619 -0.2627
vn 0.0325 -0.1901 0.9812
vn 0.1775 0.1184 0.9770
vn -0.1833 0.0085 0.9830
vn -0.1202 0.8110 -0.5726
vn -0.0345 0.8127 -0.5816
vn 0.1461 0.8728 -0.4658
vn 0.1569 0.8589 -0.4875
vn 0.0332 0.8957 -0.4434
vn 0.0337 0.0503 0.9982
vn 0.0154 0.7837 0.6209
vn 0.1798 0.5841 0.7915
vn -0.8999 0.0782 0.4291
vn -0.3787 -0.2147 0.9003
vn 0.1744 -0.9683 -0.1789
vn 0.8295 0.0520 0.5562
vn 0.2596 -0.1275 0.9572
vn 0.3181 0.1108 0.9416
vn 0.3889 -0.5332 0.7513
vn 0.2780 0.7996 0.5323
vn 0.3172 -0.6708 0.6704
vn 0.0894 0.9649 0.2471
vn 0.1490 -0.1317 0.9800
vn -0.3339 -0.1654 0.9280
vn -0.1033 -0.2300 0.9677
vn -0.0530 0.9980 -0.0354
vn 0.1854 0.9773 -0.1025
vn 0.2009 0.2274 0.9529
vn 0.2556 0.3441 0.9035
vn 0.3653 -0.4881 0.7926
vn 0.3471 0.8897 0.2966
vn 0.1696 0.9801 0.1032
vn -0.0096 0.8503 0.5261
vn 0.3334 0.3084 0.8909
vn 0.3751 0.3661 0.8517
vn 0.0157 -0.0917 -0.9957
vn 0.0222 0.0547 -0.9983
vn -0.0061 0.0154 -0.9999
vn 0.8812 0.2987 -0.3664
vn -0.0656 0.2252 -0.9721
vn -0.9179 0.2509 -0.3075
vn 0.9161 0.3122 -0.2515
vn -0.9972 0.0656 -0.0347
vn -0.0445 -0.9990 0.0009
vn 0.9769 0.2129 0.0194
vn -0.9900 0.0557 -0.1298
vn -0.9814 0.1819 -0.0621
vn 0.9952 -0.0652 -0.0735
vn 0.9964 0.0390 -0.0759
vn 0.0128 -0.9922 -0.1237
vn 0.9850 0.1722 0.0072
vn -0.9938 -0.0192 -0.1098
vn -0.9706 0.2401 0.0171
vn -0.0442 -0.9988 -0.0201
vn 0.0317 0.8974 0.4401
vn 0.9268 -0.0621 0.3704
vn -0.9618 0.0533 0.2684
vn -0.0184 -0.0161 0.9997
vn -0.7876 0.5688 0.2368
vn 0.7488 0.5906 0.3008
vn 0.0136 -0.9990 -0.0416
vn 0.9595 0.0272 0.2804
vn -0.9356 -0.0183 0.3525
vn 0.0113 -0.0394 0.9992
vn -0.0077 0.8595 0.5112
vn 0.8484 0.4614 0.2596
vn -0.7598 0.5688 0.3150
vn 0.1907 0.1243 -0.9737
vn -0.1183 0.2298 -0.9660
vn -0.1469 -0.1589 -0.9763
vn 0.1142 -0.2064 -0.9718
vn 0.1509 0.7260 -0.6709
vn -0.2583 0.7437 -0.6166
vn 0.0873 0.1115 -0.9899
vn 0.0725 0.1104 -0.9912
vn 0.2897 -0.2355 -0.9277
vn -0.0462 -0.8790 -0.4746
vn -0.0565 0.5855 -0.8087
vn -0.3434 0.2227 -0.9124
vn 0.1693 0.1615 -0.9722
vn -0.3211 0.8173 -0.4785
vn 0.2514 0.8001 -0.5446
vn 0.1864 0.9306 -0.3149
vn -0.1991 0.9446 -0.2610
vn 0.0594 -0.2870 -0.9561
vn 0.7386 -0.1840 -0.6486
vn -0.1022 -0.1081 -0.9889
vn 0.0329 -0.1119 -0.9932
vn 0.6653 0.6053 -0.4370
vn 0.1999 -0.3086 -0.9299
vn -0.0128 -0.9842 -0.1765
vn -0.2023 -0.6935 0.6915
vn -0.8322 -0.0156 -0.5542
vn 0.8790 -0.0136 -0.4766
vn 0.2917 -0.2122 -0.9327
vn 0.2124 -0.1535 -0.9650
vn -0.4129 -0.1365 -0.9005
vn 0.8659 -0.0343 -0.4990
vn -0.7400 0.6270 -0.2434
vn 0.1729 -0.9721 -0.1585
vn 0.1571 -0.4887 -0.8582
vn 0.5726 -0.8198 -0.0082
vn -0.1049 -0.9401 -0.3244
vn -0.1740 -0.7833 -0.5967
vn 0.2305 -0.2663 -0.9359
vn 0.1718 -0.2479 -0.9534
vn -0.0714 0.8958 -0.4387
vn -0.7164 -0.4283 -0.5507
vn 0.0651 0.1736 -0.9827
vn -0.3495 -0.1875 -0.9180
vn 0.0097 0.2307 -0.9730
vn -0.0667 0.2281 -0.9713
vn -0.9719 0.0639 -0.2264
vn -0.0012 0.8065 -0.5912
vn 0.1667 0.8256 -0.5391
vn 0.0499 0.9092 -0.4133
vn 0.7895 -0.5781 -0.2061
vn -0.1302 0.1725 -0.9764
vn 0.8428 -0.1396 -0.5198
vn 0.7774 -0.4630 -0.4258
vn 0.2158 0.9762 -0.0199
vn 0.7219 0.6920 -0.0030
vn -0.3277 0.9247 0.1939
vn -0.1666 0.9855 0.0336
vn 0.3994 0.9123 0.0898
vn 0.8638 -0.1859 -0.4683
vn -0.6857 0.6983 0.2053
vn -0.2539 0.7860 0.5637
vn -0.0151 0.8032 -0.5956
vn 0.0678 0.6859 -0.7245
vn -0.1268 0.7729 -0.6218
vn -0.1772 0.7178 0.6733
vn -0.0131 0.8868 0.4620
vn -0.1544 -0.4309 0.8891
vn -0.0415 0.2372 0.9706
vn -0.1000 -0.5003 0.8601
vn -0.1629 -0.4318 0.8871
vn -0.8689 -0.0807 -0.4884
vn -0.8324 -0.4327 -0.3462
vn -0.9768 -0.1075 -0.1850
vn 0.4671 -0.5756 -0.6712
vn 0.8843 -0.1325 -0.4478
vn -0.6234 -0.5306 -0.5744
vn 0.9766 0.0218 0.2141
vn -0.3567 -0.7595 0.5439
vn -0.9839 -0.1066 -0.1437
vn 0.3881 0.4967 0.7763
vn 0.4348 -0.7868 0.4381
vn -0.2767 0.6493 -0.7084
vn 0.3860 0.6146 -0.6880
vn -0.2163 0.5031 0.8367
vn -0.3953 0.3987 -0.8275
vn 0.3032 0.4081 -0.8611
vn 0.1640 0.7471 -0.6442
vn -0.0048 0.5840 -0.8117
vn -0.7375 0.2436 -0.6299
vn 0.0243 0.3901 -0.9205
vn -0.2482 -0.9548 -0.1636
vn -0.1078 0.8028 -0.5865
vn -0.0657 0.3936 -0.9169
vn 0.9221 -0.3386 -0.1874
vn -0.9439 -0.3015 -0.1350
vn -0.2089 0.5157 0.8309
vn 0.3888 0.4885 0.7812
vn -0.8843 0.1139 0.4528
vn 0.9837 0.0927 0.1541
vn 0.8438 -0.5228 -0.1210
vn -0.0203 0.5845 -0.8111
vn 0.8473 -0.1235 0.5165
vn -0.8847 -0.1953 0.4233
vn -0.3128 -0.2258 0.9226
vn 0.2019 -0.0658 0.9772
vn 0.5685 -0.6318 -0.5269
vn 0.9759 0.1115 0.1876
vn 0.9388 -0.0783 0.3355
vn -0.8983 0.1558 0.4107
vn 0.2278 -0.6268 -0.7452
vn -0.3819 0.2891 0.8778
vn -0.3421 -0.5183 0.7838
vn -0.4320 -0.3526 0.8301
vn -0.3297 0.8760 0.3520
vn -0.1066 0.9941 0.0211
vn -0.1409 0.9487 -0.2830
vn -0.1889 0.3967 0.8983
vn -0.9120 -0.0484 0.4074
vn 0.3819 0.3862 0.8396
vn 0.9883 -0.1040 0.1120
vn -0.8410 -0.4636 -0.2789
vn -0.8895 0.1610 0.4275
vn -0.0712 -0.5614 -0.8245
vn -0.9122 0.1301 -0.3886
vn -0.8230 -0.0150 0.5679
vn 0.7227 -0.0070 -0.6911
vn 0.9547 -0.0438 0.2943
vn -0.9056 0.2199 -0.3628
vn 0.8300 0.2717 -0.4870
vn 0.1481 0.9813 -0.1233
vn 0.1701 0.9721 -0.1616
vn 0.1446 0.9880 -0.0550
vn 0.8978 -0.0861 0.4319
vn 0.8811 -0.3149 0.3528
vn 0.3784 -0.0038 0.9256
vn -0.1899 0.0067 0.9818
vn 0.9719 0.0363 0.2325
vn 0.9762 -0.2070 0.0643
vn 0.9724 -0.2293 0.0424
vn -0.8454 -0.0266 0.5334
vn -0.2636 0.4093 0.8735
vn 0.8508 0.5250 0.0224
vn -0.1285 0.9805 -0.1489
vn -0.4318 -0.3523 0.8303
vn -0.2521 0.2368 0.9383
vn -0.3096 0.9480 0.0740
vn -0.1463 0.9869 -0.0687
vn -0.8895 -0.0778 0.4502
vn -0.8692 -0.2830 0.4054
vn -0.8839 0.0642 0.4632
vn -0.9248 -0.0960 0.3681
vn -0.9336 -0.1355 0.3317
vn 0.7865 -0.2695 0.5556
vn -0.7420 -0.3678 0.5605
vn 0.8240 -0.1116 0.5555
vn 0.3053 0.7884 0.5341
vn 0.2708 0.7795 0.5649
vn 0.1009 0.8736 0.4761
vn 0.5878 0.3570 0.7260
vn -0.1949 0.2553 0.9470
vn -0.2386 0.4740 0.8476
vn -0.2967 0.3666 0.8818
vn 0.0099 -0.9522 0.3055
vn 0.8108 -0.5840 0.0382
vn 0.4759 0.3452 0.8089
vn 0.9481 -0.2089 0.2396
vn 0.0922 0.6298 0.7713
vn -0.5955 0.5830 0.5528
vn 0.7244 0.5750 0.3802
vn 0.0888 0.7559 0.6486
vn -0.7691 -0.0257 0.6386
vn -0.2307 0.8023 0.5505
vn 0.6990 0.4396 0.5640
vn -0.5154 0.3456 0.7841
vn 0.7451 0.0282 0.6664
vn -0.2625 -0.1182 0.9577
vn 0.2694 -0.1171 0.9559
vn -0.8077 -0.5162 0.2849
vn -0.8846 -0.1063 0.4540
vn 0.5711 -0.3280 0.7525
vn -0.5152 -0.4032 0.7563
vn 0.2709 0.6252 0.7320
vn -0.1849 0.6363 0.7490
vn -0.6420 0.1478 0.7523
vn -0.6128 0.4250 0.6662
vn 0.1131 0.0733 0.9909
vn -0.5696 -0.0600 0.8197
vn -0.5132 -0.7413 0.4327
vn 0.7395 -0.1097 0.6642
vn 0.5600 -0.7812 0.2758
vn 0.0356 -0.8308 0.5555
vn -0.1832 0.2199 0.9582
vn -0.1678 0.5223 0.8361
vn -0.2349 -0.0873 0.9681
vn 0.2941 -0.1092 0.9495
vn 0.2424 0.5311 0.8119
vn 0.2479 0.1929 0.9494
vt 0.365200 0.373000
vt 0.365200 0.365200
vt 0.330100 0.365200
vt 0.330100 0.373000
vt 0.302700 0.369100
vt 0.302700 0.373000
vt 0.337900 0.373000
vt 0.337900 0.369100
vt 0.373000 0.345700
vt 0.373000 0.369100
vt 0.369100 0.369100
vt 0.302700 0.252000
vt 0.255900 0.252000
vt 0.052700 0.252000
vt 0.017600 0.252000
vt 0.123000 0.369100
vt 0.123000 0.373000
vt 0.072300 0.373000
vt 0.072300 0.369100
vt 0.252000 0.369100
vt 0.252000 0.345700
vt 0.068400 0.373000
vt 0.068400 0.369100
vt 0.373000 0.322300
vt 0.252000 0.279300
vt 0.302700 0.302700
vt 0.252000 0.306600
vt 0.052700 0.302700
vt 0.002000 0.279300
vt 0.002000 0.306600
vt 0.052700 0.373000
vt 0.002000 0.373000
vt 0.002000 0.349600
vt 0.123000 0.345700
vt 0.119100 0.345700
vt 0.119100 0.369100
vt 0.302700 0.322300
vt 0.337900 0.322300
vt 0.373000 0.373000
vt 0.353500 0.373000
vt 0.353500 0.369100
vt 0.337900 0.302700
vt 0.337900 0.252000
vt 0.373000 0.275400
vt 0.369100 0.298800
vt 0.373000 0.252000
vt 0.252000 0.252000
vt 0.267600 0.252000
vt 0.341800 0.306600
vt 0.302700 0.306600
vt 0.302700 0.314500
vt 0.341800 0.314500
vt 0.314500 0.369100
vt 0.326200 0.369100
vt 0.326200 0.373000
vt 0.314500 0.373000
vt 0.271500 0.322300
vt 0.252000 0.322300
vt 0.267600 0.318400
vt 0.252000 0.310500
vt 0.267600 0.302700
vt 0.123000 0.322300
vt 0.119100 0.322300
vt 0.349600 0.302700
vt 0.349600 0.318400
vt 0.345700 0.318400
vt 0.345700 0.302700
vt 0.294900 0.302700
vt 0.294900 0.318400
vt 0.294900 0.298800
vt 0.337900 0.298800
vt 0.341800 0.322300
vt 0.341800 0.318400
vt 0.341800 0.302700
vt 0.052700 0.318400
vt 0.021500 0.318400
vt 0.002000 0.326200
vt 0.002000 0.310500
vt 0.017600 0.318400
vt 0.017600 0.302700
vt 0.087900 0.373000
vt 0.091800 0.318400
vt 0.076200 0.373000
vt 0.076200 0.369100
vt 0.099600 0.369100
vt 0.099600 0.373000
vt 0.087900 0.252000
vt 0.123000 0.275400
vt 0.123000 0.252000
vt 0.002000 0.252000
vt 0.052700 0.306600
vt 0.091800 0.306600
vt 0.091800 0.314500
vt 0.052700 0.314500
vt 0.080100 0.369100
vt 0.060500 0.369100
vt 0.060500 0.373000
vt 0.080100 0.373000
vt 0.084000 0.302700
vt 0.119100 0.298800
vt 0.099600 0.318400
vt 0.099600 0.302700
vt 0.095700 0.302700
vt 0.095700 0.318400
vt 0.044900 0.318400
vt 0.044900 0.302700
vt 0.044900 0.298800
vt 0.095700 0.298800
vt 0.095700 0.322300
vt 0.052700 0.322300
vt 0.921853 0.503953
vt 0.957053 0.503953
vt 0.957053 0.515653
vt 0.921853 0.511753
vt 0.886753 0.503953
vt 0.886753 0.519553
vt 0.804653 0.628953
vt 0.839853 0.628953
vt 0.839853 0.648453
vt 0.804653 0.648453
vt 0.999953 0.503953
vt 0.999953 0.519553
vt 0.871053 0.628953
vt 0.878953 0.644553
vt 0.753953 0.640653
vt 0.753953 0.628953
vt 0.835953 0.507853
vt 0.789053 0.507853
vt 0.789053 0.503953
vt 0.835953 0.503953
vt 0.753953 0.519553
vt 0.753953 0.503953
vt 0.960953 0.539053
vt 0.933553 0.535153
vt 0.796853 0.671853
vt 0.824253 0.671853
vt 0.917953 0.628953
vt 0.917953 0.632853
vt 0.914053 0.542953
vt 0.976553 0.628953
vt 0.976553 0.632853
vt 0.999953 0.628953
vt 0.999953 0.644553
vt 0.847653 0.675753
vt 0.917953 0.624953
vt 0.957053 0.624953
vt 0.835953 0.749953
vt 0.804653 0.749953
vt 0.593753 0.628953
vt 0.570353 0.656253
vt 0.542953 0.628953
vt 0.683553 0.531253
vt 0.660153 0.503953
vt 0.714853 0.503953
vt 0.871053 0.624953
vt 0.999953 0.624953
vt 0.753953 0.749953
vt 0.882853 0.749953
vt 0.726553 0.609353
vt 0.679653 0.597653
vt 0.523453 0.664053
vt 0.539053 0.730453
vt 0.582053 0.718753
vt 0.906253 0.785153
vt 0.855453 0.785153
vt 0.863253 0.753953
vt 0.902353 0.753953
vt 0.933553 0.777353
vt 0.613253 0.531253
vt 0.617153 0.503953
vt 0.730453 0.546853
vt 0.749953 0.523453
vt 0.749953 0.503953
vt 0.632853 0.652353
vt 0.597653 0.710953
vt 0.632853 0.628953
vt 0.503953 0.648453
vt 0.503953 0.628953
vt 0.828153 0.777353
vt 0.652353 0.585953
vt 0.902353 0.824253
vt 0.859353 0.820353
vt 0.999953 0.753953
vt 0.749953 0.562453
vt 0.589853 0.742153
vt 0.503953 0.683553
vt 0.828153 0.624953
vt 0.804653 0.624953
vt 0.753953 0.624953
vt 0.503953 0.527353
vt 0.503953 0.503953
vt 0.550753 0.503953
vt 0.582053 0.503953
vt 0.953153 0.749953
vt 0.921853 0.749953
vt 0.999953 0.749953
vt 0.749953 0.628953
vt 0.749953 0.652353
vt 0.703153 0.628953
vt 0.671853 0.628953
vt 0.972653 0.816453
vt 0.757853 0.753953
vt 0.664053 0.624953
vt 0.796853 0.816453
vt 0.621053 0.562453
vt 0.636753 0.691453
vt 0.656253 0.675753
vt 0.683553 0.656253
vt 0.878953 0.874953
vt 0.503953 0.749953
vt 0.589853 0.566453
vt 0.562453 0.531253
vt 0.796853 0.874953
vt 0.890653 0.753953
vt 0.874953 0.753953
vt 0.964853 0.874953
vt 0.749953 0.624953
vt 0.999953 0.804653
vt 0.624953 0.742153
vt 0.632853 0.726553
vt 0.531253 0.562453
vt 0.999953 0.378953
vt 0.957053 0.460953
vt 0.941453 0.378953
vt 0.722653 0.691453
vt 0.753953 0.804653
vt 0.624953 0.624953
vt 0.613253 0.601553
vt 0.503953 0.562453
vt 0.503953 0.624953
vt 0.749953 0.683553
vt 0.749953 0.749953
vt 0.667953 0.382853
vt 0.703153 0.382853
vt 0.714853 0.429653
vt 0.675753 0.425753
vt 0.667953 0.378953
vt 0.703153 0.378953
vt 0.710953 0.480453
vt 0.902353 0.460953
vt 0.921853 0.499953
vt 0.953153 0.499953
vt 0.999953 0.464853
vt 0.867153 0.378953
vt 0.999953 0.874953
vt 0.683553 0.718753
vt 0.718753 0.749953
vt 0.999953 0.499953
vt 0.749953 0.378953
vt 0.734353 0.476553
vt 0.808553 0.378953
vt 0.753953 0.464853
vt 0.753953 0.378953
vt 0.863253 0.882853
vt 0.867153 0.878953
vt 0.894553 0.878953
vt 0.894553 0.882853
vt 0.753953 0.874953
vt 0.554653 0.589853
vt 0.523453 0.624953
vt 0.652353 0.749953
vt 0.636753 0.480453
vt 0.636753 0.492153
vt 0.894553 0.925753
vt 0.863253 0.925753
vt 0.812453 0.882853
vt 0.589853 0.624953
vt 0.691453 0.749953
vt 0.859353 0.460953
vt 0.816453 0.464853
vt 0.621053 0.378953
vt 0.871053 0.499953
vt 0.753953 0.499953
vt 0.808553 0.499953
vt 0.953153 0.882853
vt 0.546853 0.624953
vt 0.609353 0.484353
vt 0.613253 0.496053
vt 0.609353 0.449253
vt 0.832053 0.499953
vt 0.753953 0.999953
vt 0.753953 0.882853
vt 0.781253 0.882853
vt 0.796853 0.999953
vt 0.749953 0.476553
vt 0.999953 0.882853
vt 0.999953 0.999953
vt 0.968753 0.999953
vt 0.984353 0.882853
vt 0.566453 0.378953
vt 0.566453 0.421853
vt 0.539053 0.429653
vt 0.542953 0.378953
vt 0.503953 0.476553
vt 0.503953 0.378953
vt 0.878953 0.999953
vt 0.593753 0.484353
vt 0.593753 0.499953
vt 0.570353 0.484353
vt 0.550753 0.476553
vt 0.531253 0.480453
vt 0.566453 0.496053
vt 0.154300 0.267600
vt 0.154300 0.252000
vt 0.127000 0.252000
vt 0.127000 0.267600
vt 0.154300 0.373000
vt 0.127000 0.373000
vt 0.162100 0.373000
vt 0.150400 0.373000
vt 0.212900 0.252000
vt 0.169900 0.373000
vt 0.205100 0.267600
vt 0.205100 0.252000
vt 0.173800 0.373000
vt 0.130900 0.252000
vt 0.209000 0.252000
vt 0.248000 0.252000
vt 0.248000 0.373000
vt 0.220700 0.373000
vt 0.220700 0.279300
vt 0.248000 0.279300
vt 0.220700 0.267600
vt 0.220700 0.252000
vt 0.216800 0.252000
vt 0.216800 0.283200
vt 0.216800 0.279300
vt 0.486300 0.775400
vt 0.486300 0.752000
vt 0.564500 0.752000
vt 0.564500 0.775400
vt 0.646500 0.752000
vt 0.646500 0.775400
vt 0.564500 0.826200
vt 0.662100 0.830100
vt 0.466800 0.830100
vt 0.498000 0.720700
vt 0.498000 0.740200
vt 0.447300 0.712900
vt 0.002000 0.744100
vt 0.002000 0.720700
vt 0.068400 0.716800
vt 0.294900 0.459000
vt 0.310500 0.377000
vt 0.353500 0.459000
vt 0.334000 0.498000
vt 0.294900 0.498000
vt 0.252000 0.377000
vt 0.377000 0.377000
vt 0.002000 0.685500
vt 0.060500 0.693400
vt 0.447300 0.689500
vt 0.498000 0.689500
vt 0.087900 0.748000
vt 0.408200 0.748000
vt 0.498000 0.748000
vt 0.002000 0.748000
vt 0.048800 0.380900
vt 0.084000 0.380900
vt 0.076200 0.423800
vt 0.041000 0.427700
vt 0.084000 0.377000
vt 0.048800 0.377000
vt 0.564500 0.916000
vt 0.646500 0.916000
vt 0.486300 0.916000
vt 0.396500 0.728500
vt 0.048800 0.474600
vt 0.252000 0.459000
vt 0.498000 0.462900
vt 0.451200 0.377000
vt 0.498000 0.377000
vt 0.748000 0.779300
vt 0.748000 0.752000
vt 0.377000 0.779300
vt 0.377000 0.752000
vt 0.388700 0.916000
vt 0.380900 0.900400
vt 0.462900 0.634800
vt 0.498000 0.642600
vt 0.002000 0.638700
vt 0.044900 0.638700
vt 0.380900 0.709000
vt 0.099600 0.728500
vt 0.252000 0.498000
vt 0.025400 0.470700
vt 0.002000 0.377000
vt 0.119100 0.474600
vt 0.115200 0.490200
vt 0.400400 0.459000
vt 0.416000 0.955100
vt 0.388700 0.959000
vt 0.509800 0.951200
vt 0.740200 0.916000
vt 0.744100 0.900400
vt 0.607400 0.955100
vt 0.111300 0.705100
vt 0.127000 0.377000
vt 0.377000 0.498000
vt 0.709000 0.955100
vt 0.732400 0.959000
vt 0.377000 0.830100
vt 0.248000 0.748000
vt 0.248000 0.744100
vt 0.318400 0.736300
vt 0.181600 0.740200
vt 0.408200 0.642600
vt 0.443400 0.459000
vt 0.138700 0.447300
vt 0.416000 0.498000
vt 0.451200 0.498000
vt 0.498000 0.498000
vt 0.748000 0.830100
vt 0.084000 0.638700
vt 0.115200 0.642600
vt 0.466800 0.548800
vt 0.498000 0.595700
vt 0.384800 0.646500
vt 0.002000 0.595700
vt 0.033200 0.548800
vt 0.318400 0.712900
vt 0.498000 0.548800
vt 0.248000 0.732400
vt 0.002000 0.548800
vt 0.087900 0.642600
vt 0.400400 0.646500
vt 0.002000 0.502000
vt 0.052700 0.502000
vt 0.455100 0.502000
vt 0.498000 0.502000
vt 0.130900 0.478500
vt 0.134800 0.494100
vt 0.416000 0.978500
vt 0.533200 0.994100
vt 0.388700 0.978500
vt 0.564500 0.990200
vt 0.002000 0.470700
vt 0.595700 0.994100
vt 0.377000 0.900400
vt 0.748000 0.900400
vt 0.185500 0.712900
vt 0.248000 0.709000
vt 0.353500 0.638700
vt 0.732400 0.982400
vt 0.709000 0.978500
vt 0.373000 0.752000
vt 0.373000 0.775400
vt 0.283200 0.783200
vt 0.275400 0.752000
vt 0.002000 0.775400
vt 0.002000 0.752000
vt 0.119100 0.752000
vt 0.103500 0.775400
vt 0.189500 0.752000
vt 0.388700 0.587900
vt 0.318400 0.658200
vt 0.146500 0.638700
vt 0.173800 0.419900
vt 0.181600 0.377000
vt 0.220700 0.377000
vt 0.224600 0.427700
vt 0.248000 0.377000
vt 0.248000 0.470700
vt 0.150400 0.478500
vt 0.181600 0.658200
vt 0.252000 0.654300
vt 0.119100 0.584000
vt 0.146500 0.595700
vt 0.353500 0.595700
vt 0.111300 0.537100
vt 0.396500 0.537100
vt 0.318400 0.634800
vt 0.099600 0.502000
vt 0.408200 0.502000
vt 0.158200 0.498000
vt 0.498000 0.998000
vt 0.416000 0.998000
vt 0.388700 0.998000
vt 0.373000 0.837900
vt 0.291000 0.834000
vt 0.373000 0.888700
vt 0.252000 0.642600
vt 0.181600 0.630900
vt 0.326200 0.599600
vt 0.373000 0.548800
vt 0.173800 0.478500
vt 0.197300 0.478500
vt 0.732400 0.998000
vt 0.709000 0.998000
vt 0.634800 0.998000
vt 0.224600 0.478500
vt 0.002000 0.830100
vt 0.076200 0.837900
vt 0.002000 0.892600
vt 0.177700 0.603500
vt 0.134800 0.552700
vt 0.361300 0.502000
vt 0.326200 0.517600
vt 0.146500 0.502000
vt 0.181600 0.517600
vt 0.373000 0.919900
vt 0.306600 0.880900
vt 0.330100 0.998000
vt 0.248000 0.998000
vt 0.228500 0.994100
vt 0.334000 0.962900
vt 0.373000 0.966800
vt 0.373000 0.998000
vt 0.177700 0.498000
vt 0.228500 0.591800
vt 0.271500 0.591800
vt 0.259800 0.599600
vt 0.240200 0.599600
vt 0.330100 0.544900
vt 0.002000 0.998000
vt 0.002000 0.962900
vt 0.041000 0.962900
vt 0.041000 0.998000
vt 0.002000 0.919900
vt 0.076200 0.888700
vt 0.123000 0.998000
vt 0.166000 0.994100
vt 0.306600 0.927700
vt 0.189500 0.826200
vt 0.177700 0.544900
vt 0.252000 0.502000
vt 0.189500 0.990200
vt 0.189500 0.951200
vt 0.072300 0.923800
vt 0.228500 0.521500
vt 0.271500 0.521500
vt 0.189500 0.919900
vt 0.189500 0.877000
s 0
usemtl 9C322267924C9B7A6526A4A5154F867F
f 1/1/1 3/2/1 4/3/1 2/4/1
f 5/5/2 7/6/2 8/7/2 6/8/2
f 9/9/3 11/10/3 12/11/3 10/9/3
f 13/12/4 15/12/4 14/13/4
f 16/14/5 18/14/5 17/15/5
f 19/16/6 21/17/6 22/18/6 20/19/6
f 23/20/7 25/6/7 24/21/7
f 26/22/8 28/23/8 29/19/8 27/18/8
f 30/9/9 32/9/9 33/24/9 31/24/9
f 34/25/10 36/26/10 35/27/10
f 37/28/11 39/29/11 38/30/11
f 40/31/12 42/32/12 41/33/12
f 43/16/13 45/34/13 46/35/13 44/36/13
f 47/37/14 49/6/14 50/7/14 48/38/14
f 51/38/15 53/7/15 54/11/15 52/9/15
f 55/10/16 57/39/16 58/40/16 56/41/16
f 59/42/17 61/43/17 62/44/17 60/45/17
f 63/44/18 65/43/18 64/46/18
f 66/21/19 68/6/19 67/37/19
f 69/38/20 71/9/20 70/24/20
f 72/12/21 74/25/21 75/47/21 73/48/21
f 76/49/22 78/50/22 79/51/22 77/52/22
f 80/53/23 82/54/23 83/55/23 81/56/23
f 84/26/24 86/12/24 87/43/24 85/42/24
f 88/26/25 90/25/25 89/12/25
f 91/57/26 93/21/26 92/37/26
f 94/21/27 96/57/27 95/58/27
f 97/59/28 99/60/28 98/61/28
f 100/35/29 102/34/29 103/62/29 101/63/29
f 104/64/30 106/65/30 107/66/30 105/67/30
f 108/68/31 110/69/31 111/59/31 109/61/31
f 112/26/32 114/70/32 115/71/32 113/42/32
f 116/72/33 118/73/33 119/69/33 117/37/33
f 120/74/34 122/73/34 123/69/34 121/68/34
f 124/70/35 126/26/35 125/61/35
f 127/37/36 129/69/36 128/59/36
f 130/31/37 132/33/37 131/75/37
f 133/33/38 135/76/38 134/75/38
f 136/76/39 138/33/39 137/77/39
f 139/78/40 141/79/40 140/80/40
f 142/81/41 144/82/41 145/34/41 143/36/41
f 146/83/42 148/84/42 149/85/42 147/86/42
f 150/87/43 152/88/43 151/89/43
f 153/34/44 155/82/44 154/62/44
f 156/29/45 158/14/45 159/15/45 157/90/45
f 160/91/46 162/92/46 163/93/46 161/94/46
f 164/31/47 166/75/47 167/82/47 165/81/47
f 168/95/48 170/96/48 171/97/48 169/98/48
f 172/14/49 174/28/49 175/99/49 173/87/49
f 176/87/50 178/99/50 179/100/50 177/88/50
f 180/29/51 182/28/51 181/14/51
f 183/101/52 185/102/52 186/103/52 184/104/52
f 187/105/53 189/106/53 190/80/53 188/79/53
f 191/107/54 193/28/54 194/103/54 192/108/54
f 195/104/55 197/109/55 198/110/55 196/105/55
f 199/104/56 201/103/56 202/106/56 200/105/56
f 203/28/57 205/107/57 204/80/57
f 206/105/58 208/110/58 207/79/58
f 209/111/59 211/112/59 212/113/59 210/114/59
f 213/115/60 215/111/60 216/114/60 214/116/60
f 217/117/61 219/118/61 220/119/61 218/120/61
f 221/113/62 223/112/62 224/121/62 222/122/62
f 225/118/63 227/123/63 228/124/63 226/119/63
f 229/117/64 231/120/64 232/125/64 230/126/64
f 233/127/65 235/128/65 236/129/65 234/130/65
f 237/128/66 239/131/66 240/132/66 238/129/66
f 241/127/67 243/130/67 244/115/67 242/116/67
f 245/113/68 247/133/68 248/134/68 246/114/68
f 249/113/69 251/122/69 250/133/69
f 252/135/70 254/120/70 255/119/70 253/136/70
f 256/137/71 258/138/71 259/124/71 257/123/71
f 260/135/72 262/125/72 261/120/72
f 263/139/73 265/116/73 264/114/73
f 266/114/74 268/134/74 267/139/74
f 269/140/75 271/141/75 272/138/75 270/137/75
f 273/141/76 275/140/76 276/142/76 274/143/76
f 277/124/77 279/144/77 278/119/77
f 280/136/78 282/119/78 281/144/78
f 283/145/79 285/139/79 286/134/79 284/146/79
f 287/146/80 289/134/80 288/133/80
f 290/144/81 292/147/81 293/148/81 291/136/81
f 294/136/82 296/148/82 295/135/82
f 297/149/83 299/150/83 298/151/83
f 300/152/84 302/153/84 301/154/84
f 303/145/85 305/155/85 306/116/85 304/139/85
f 307/146/86 309/133/86 310/122/86 308/156/86
f 311/135/87 313/148/87 314/157/87 312/125/87
f 315/158/88 317/147/88 318/144/88 316/124/88
f 319/159/89 321/160/89 320/152/89
f 322/161/90 324/150/90 323/162/90
f 325/163/91 327/162/91 326/150/91
f 328/150/92 330/161/92 329/151/92
f 331/164/93 333/165/93 334/166/93 332/167/93
f 335/164/94 337/167/94 336/168/94
f 338/153/95 340/169/95 339/170/95
f 341/171/96 343/152/96 342/154/96
f 344/154/97 346/172/97 345/171/97
f 347/173/98 349/172/98 348/154/98
f 350/152/99 352/171/99 351/159/99
f 353/149/100 355/174/100 354/175/100
f 356/174/101 358/149/101 357/176/101
f 359/175/102 361/163/102 360/150/102
f 362/149/103 364/175/103 363/150/103
f 365/177/104 367/178/104 366/151/104
f 368/161/105 370/177/105 369/151/105
f 371/166/106 373/165/106 372/179/106
f 374/180/107 376/153/107 375/152/107
f 377/180/108 379/169/108 378/153/108
f 380/160/109 382/180/109 381/152/109
f 383/181/110 385/182/110 386/165/110 384/164/110
f 387/167/111 389/183/111 388/168/111
f 390/184/112 392/171/112 391/172/112
f 393/175/113 395/185/113 394/163/113
f 396/185/114 398/162/114 397/163/114
f 399/186/115 401/177/115 400/161/115
f 402/155/116 404/187/116 405/127/116 403/116/116
f 406/188/117 408/189/117 409/131/117 407/128/117
f 410/128/118 412/127/118 413/187/118 411/188/118
f 414/190/119 416/191/119 415/192/119
f 417/169/120 419/193/120 418/170/120
f 420/138/121 422/141/121 423/194/121 421/195/121
f 424/196/122 426/194/122 427/141/122 425/143/122
f 428/195/123 430/158/123 431/124/123 429/138/123
f 432/197/124 434/198/124 433/199/124
f 435/200/125 437/174/125 436/176/125
f 438/168/126 440/201/126 441/181/126 439/164/126
f 442/202/127 444/166/127 443/179/127
f 445/183/128 447/201/128 446/168/128
f 448/159/129 450/203/129 449/160/129
f 451/180/130 453/160/130 452/203/130
f 454/204/131 456/179/131 457/165/131 455/182/131
f 458/204/132 460/202/132 459/179/132
f 461/180/133 463/205/133 462/169/133
f 464/174/134 466/206/134 465/175/134
f 467/200/135 469/207/135 468/174/135
f 470/199/136 472/208/136 471/200/136
f 473/207/137 475/200/137 474/208/137
f 476/182/138 478/181/138 477/209/138
f 479/206/139 481/174/139 480/207/139
f 482/162/140 484/210/140 483/161/140
f 485/186/141 487/161/141 486/210/141
f 488/211/142 490/193/142 489/169/142
f 491/193/143 493/211/143 492/212/143
f 494/212/144 496/192/144 495/193/144
f 497/213/145 499/204/145 500/182/145 498/209/145
f 501/214/146 503/167/146 504/166/146 502/215/146
f 505/201/147 507/216/147 508/209/147 506/181/147
f 509/171/148 511/184/148 510/217/148
f 512/171/149 514/217/149 513/159/149
f 515/205/150 517/211/150 516/169/150
f 518/183/151 520/218/151 519/201/151
f 521/219/152 523/175/152 522/220/152
f 524/206/153 526/207/153 525/220/153
f 527/175/154 529/206/154 528/220/154
f 530/219/155 532/185/155 531/175/155
f 533/192/156 535/221/156 534/190/156
f 536/212/157 538/221/157 537/192/157
f 539/222/158 541/223/158 540/224/158
f 542/225/159 544/199/159 543/198/159
f 545/208/160 547/199/160 546/225/160
f 548/226/161 550/202/161 549/204/161
f 551/180/162 553/227/162 552/228/162
f 554/221/163 556/229/163 555/190/163
f 557/211/164 559/205/164 558/228/164
f 560/203/165 562/227/165 561/180/165
f 563/228/166 565/205/166 564/180/166
f 566/230/167 568/229/167 567/221/167
f 569/225/168 571/231/168 570/232/168
f 572/198/169 574/231/169 573/225/169
f 575/233/170 577/234/170 578/235/170 576/236/170
f 579/233/171 581/237/171 582/238/171 580/234/171
f 583/235/172 585/239/172 584/236/172
f 586/224/173 588/223/173 587/240/173
f 589/241/174 591/240/174 590/223/174
f 592/223/175 594/242/175 593/241/175
f 595/223/176 597/222/176 596/243/176
f 598/224/177 600/240/177 599/244/177
f 601/216/178 603/201/178 604/218/178 602/245/178
f 605/246/179 607/225/179 606/247/179
f 608/225/180 610/246/180 609/208/180
f 611/225/181 613/232/181 612/247/181
f 614/208/182 616/246/182 615/207/182
f 617/243/183 619/248/183 620/242/183 618/223/183
f 621/235/184 623/249/184 622/250/184
f 624/234/185 626/249/185 625/235/185
f 627/238/186 629/249/186 628/234/186
f 630/239/187 632/235/187 631/250/187
f 633/251/188 635/252/188 634/253/188
f 636/254/189 638/255/189 639/256/189 637/257/189
f 640/204/190 642/213/190 643/258/190 641/226/190
f 644/221/191 646/259/191 645/260/191
f 647/259/192 649/221/192 648/212/192
f 650/230/193 652/221/193 651/260/193
f 653/259/194 655/212/194 654/211/194
f 656/207/195 658/261/195 657/220/195
f 659/261/196 661/219/196 660/220/196
f 662/261/197 664/207/197 663/246/197
f 665/262/198 667/236/198 666/239/198
f 668/239/199 670/263/199 669/262/199
f 671/254/200 673/257/200 674/264/200 672/265/200
f 675/265/201 677/266/201 676/254/201
f 678/267/202 680/211/202 679/228/202
f 681/227/203 683/267/203 682/228/203
f 684/211/204 686/267/204 685/259/204
f 687/268/205 689/246/205 688/247/205
f 690/246/206 692/268/206 691/261/206
f 693/251/207 695/244/207 696/269/207 694/270/207
f 697/233/208 699/271/208 698/237/208
f 700/241/209 702/272/209 701/240/209
f 703/251/210 705/270/210 704/252/210
f 706/272/211 708/269/211 707/240/211
f 709/273/212 711/252/212 710/274/212
f 712/252/213 714/270/213 713/274/213
f 715/269/214 717/244/214 716/240/214
f 718/275/215 720/264/215 719/257/215
f 721/276/216 723/259/216 722/267/216
f 724/259/217 726/276/217 725/260/217
f 727/277/218 729/262/218 730/263/218 728/278/218
f 731/279/219 733/233/219 732/236/219
f 734/279/220 736/236/220 735/262/220
f 737/277/221 739/279/221 738/262/221
f 740/279/222 742/271/222 741/233/222
f 743/270/223 745/280/223 744/274/223
f 746/269/224 748/272/224 747/280/224
f 749/280/225 751/270/225 750/269/225
f 752/281/226 754/282/226 755/283/226 753/284/226
f 756/284/227 758/283/227 757/266/227
f 759/250/228 761/249/228 760/285/228
f 762/286/229 764/287/229 765/288/229 763/289/229
f 766/289/230 768/288/230 767/275/230
f 769/290/231 771/291/231 772/292/231 770/293/231
f 773/292/232 775/294/232 774/295/232
f 776/291/233 778/290/233 777/271/233
f 779/293/234 781/292/234 780/295/234
f 782/291/235 784/271/235 783/279/235
f 785/296/236 787/264/236 788/275/236 786/288/236
f 789/265/237 791/296/237 792/284/237 790/266/237
f 793/296/238 795/265/238 794/264/238
f 796/297/239 798/277/239 799/278/239 797/298/239
f 800/297/240 802/279/240 801/277/240
f 803/292/241 805/291/241 806/299/241 804/300/241
f 807/292/242 809/300/242 808/301/242
f 810/292/243 812/301/243 811/294/243
f 813/279/244 815/297/244 814/299/244
f 816/291/245 818/279/245 817/299/245
f 819/299/246 821/297/246 822/298/246 820/302/246
f 823/302/247 825/301/247 824/300/247
f 826/302/248 828/300/248 827/299/248
f 829/303/249 831/304/249 832/305/249 830/306/249
f 833/307/250 835/303/250 836/306/250 834/308/250
f 837/304/251 839/303/251 840/306/251 838/305/251
f 841/309/252 843/303/252 842/310/252
f 844/303/253 846/307/253 847/308/253 845/306/253
f 848/303/254 850/309/254 849/307/254
f 851/309/255 853/303/255 852/307/255
f 854/309/256 856/307/256 855/303/256
f 857/305/257 859/311/257 860/311/257 858/305/257
f 861/309/258 863/312/258 864/313/258 862/303/258
f 865/303/259 867/304/259 868/314/259 866/313/259
f 869/313/260 871/315/260 872/309/260 870/303/260
f 873/314/261 875/304/261 876/303/261 874/313/261
f 877/303/262 879/313/262 880/314/262 878/304/262
f 881/316/263 883/317/263 884/317/263 882/316/263
f 885/303/264 887/309/264 888/312/264 886/313/264
f 889/314/265 891/313/265 892/303/265 890/304/265
f 893/313/266 895/312/266 896/309/266 894/303/266
f 897/318/267 899/318/267 900/311/267 898/311/267
f 901/319/268 903/320/268 904/321/268 902/322/268
f 905/323/269 907/324/269 908/314/269 906/313/269
f 909/313/270 911/314/270 912/325/270 910/326/270
f 913/321/271 915/324/271 916/318/271 914/322/271
f 917/326/272 919/315/272 918/313/272
f 920/323/273 922/313/273 921/312/273
f 923/318/274 925/318/274 926/317/274 924/317/274
f 927/314/275 929/313/275 930/327/275 928/325/275
f 931/324/276 933/323/276 934/313/276 932/314/276
f 935/325/277 937/327/277 938/322/277 936/318/277
f 939/320/278 941/319/278 942/322/278 940/327/278
f 943/327/279 945/313/279 944/312/279
f 946/323/280 948/312/280 947/313/280
f 949/328/281 951/329/281 952/330/281 950/331/281
f 953/332/282 955/333/282 956/331/282 954/330/282
f 957/334/283 959/331/283 960/333/283 958/335/283
f 961/331/284 963/334/284 964/336/284 962/328/284
f 965/337/285 967/338/285 966/339/285
f 968/340/286 970/341/286 969/342/286
f 971/343/287 973/344/287 972/345/287
f 974/345/288 976/346/288 975/343/288
f 977/347/289 979/343/289 978/346/289
f 980/343/290 982/348/290 981/344/290
f 983/345/291 985/344/291 984/349/291
f 986/341/292 988/350/292 989/351/292 987/342/292
f 990/339/293 992/352/293 993/353/293 991/337/293
f 994/340/294 996/342/294 995/354/294
f 997/338/295 999/355/295 998/339/295
f 1000/338/296 1002/356/296 1001/355/296
f 1003/340/297 1005/354/297 1004/357/297
f 1006/358/298 1008/359/298 1009/360/298 1007/361/298
f 1010/362/299 1012/359/299 1013/358/299 1011/363/299
f 1014/364/300 1016/334/300 1017/335/300 1015/365/300
f 1018/334/301 1020/364/301 1021/366/301 1019/336/301
f 1022/355/302 1024/367/302 1023/339/302
f 1025/368/303 1027/361/303 1026/360/303
f 1028/369/304 1030/348/304 1029/343/304
f 1031/370/305 1033/371/305 1032/372/305
f 1034/373/306 1036/333/306 1037/332/306 1035/374/306
f 1038/328/307 1040/375/307 1041/376/307 1039/329/307
f 1042/366/308 1044/377/308 1045/378/308 1043/336/308
f 1046/352/309 1048/379/309 1049/380/309 1047/353/309
f 1050/381/310 1052/382/310 1053/351/310 1051/350/310
f 1054/339/311 1056/367/311 1057/383/311 1055/352/311
f 1058/384/312 1060/354/312 1059/342/312
f 1061/385/313 1063/369/313 1064/343/313 1062/347/313
f 1065/361/314 1067/368/314 1066/386/314
f 1068/387/315 1070/363/315 1069/358/315
f 1071/361/316 1073/387/316 1072/358/316
f 1074/386/317 1076/387/317 1075/361/317
f 1077/360/318 1079/388/318 1078/368/318
f 1080/389/319 1082/368/319 1081/388/319
f 1083/349/320 1085/390/320 1084/345/320
f 1086/377/321 1088/391/321 1087/392/321
f 1089/391/322 1091/377/322 1092/366/322 1090/393/322
f 1093/394/323 1095/365/323 1096/335/323 1094/395/323
f 1097/393/324 1099/366/324 1098/364/324
f 1100/365/325 1102/396/325 1101/364/325
f 1103/384/326 1105/342/326 1106/351/326 1104/397/326
f 1107/398/327 1109/359/327 1108/362/327
f 1110/399/328 1112/346/328 1111/345/328
f 1113/390/329 1115/399/329 1114/345/329
f 1116/400/330 1118/394/330 1117/401/330
f 1119/394/331 1121/400/331 1122/396/331 1120/365/331
f 1123/402/332 1125/375/332 1126/328/332 1124/336/332
f 1127/378/333 1129/402/333 1128/336/333
f 1130/355/334 1132/403/334 1131/404/334
f 1133/367/335 1135/355/335 1134/405/335
f 1136/406/336 1138/404/336 1137/354/336
f 1139/403/337 1141/354/337 1140/404/337
f 1142/404/338 1144/405/338 1143/355/338
f 1145/352/339 1147/407/339 1146/379/339
f 1148/354/340 1150/384/340 1149/406/340
f 1151/349/341 1153/371/341 1154/408/341 1152/390/341
f 1155/398/342 1157/409/342 1156/359/342
f 1158/359/343 1160/409/343 1159/360/343
f 1161/360/344 1163/409/344 1162/388/344
f 1164/390/345 1166/408/345 1165/410/345
f 1167/399/346 1169/390/346 1168/410/346
f 1170/408/347 1172/371/347 1171/370/347
f 1173/410/348 1175/408/348 1174/411/348
f 1176/370/349 1178/412/349 1177/411/349
f 1179/408/350 1181/370/350 1180/411/350
f 1182/373/351 1184/413/351 1185/335/351 1183/333/351
f 1186/413/352 1188/395/352 1187/335/352
f 1189/414/353 1191/415/353 1192/397/353 1190/351/353
f 1193/379/354 1195/416/354 1196/417/354 1194/380/354
f 1197/418/355 1199/407/355 1200/352/355 1198/383/355
f 1201/382/356 1203/381/356 1204/419/356 1202/420/356
f 1205/383/357 1207/367/357 1208/405/357 1206/421/357
f 1209/422/358 1211/417/358 1210/416/358
f 1212/414/359 1214/351/359 1213/382/359
f 1215/405/360 1217/404/360 1216/423/360
f 1218/420/361 1220/419/361 1219/424/361
f 1221/425/362 1223/415/362 1222/414/362
f 1224/418/363 1226/426/363 1225/407/363
f 1227/404/364 1229/406/364 1228/423/364
f 1230/420/365 1232/424/365 1233/427/365 1231/428/365
f 1234/422/366 1236/416/366 1237/429/366 1235/430/366
f 1238/389/367 1240/388/367 1241/431/367 1239/432/367
f 1242/433/368 1244/391/368 1245/393/368 1243/434/368
f 1246/391/369 1248/433/369 1249/435/369 1247/392/369
f 1250/436/370 1252/434/370 1253/393/370 1251/364/370
f 1254/437/371 1256/387/371 1255/386/371
f 1257/409/372 1259/431/372 1258/388/372
f 1260/438/373 1262/436/373 1263/364/373 1261/396/373
f 1264/402/374 1266/378/374 1265/439/374
f 1267/395/375 1269/413/375 1268/440/375
f 1270/423/376 1272/406/376 1273/441/376 1271/442/376
f 1274/405/377 1276/423/377 1277/442/377 1275/421/377
f 1278/397/378 1280/441/378 1281/406/378 1279/384/378
f 1282/383/379 1284/443/379 1283/418/379
f 1285/400/380 1287/401/380 1288/444/380 1286/445/380
f 1289/400/381 1291/445/381 1292/438/381 1290/396/381
f 1293/446/382 1295/447/382 1296/448/382 1294/449/382
f 1297/450/383 1299/451/383 1300/452/383 1298/453/383
f 1301/452/384 1303/454/384 1302/453/384
f 1304/448/385 1306/454/385 1305/449/385
f 1307/416/386 1309/379/386 1310/407/386 1308/455/386
f 1311/421/387 1313/456/387 1314/443/387 1312/383/387
f 1315/418/388 1317/455/388 1316/426/388
f 1318/457/389 1320/397/389 1319/415/389
f 1321/407/390 1323/426/390 1322/455/390
f 1324/458/391 1326/459/391 1327/460/391 1325/461/391
f 1328/461/392 1330/460/392 1329/462/392
f 1331/461/393 1333/462/393 1332/463/393
f 1334/458/394 1336/398/394 1335/459/394
f 1337/398/395 1339/458/395 1338/409/395
f 1340/409/396 1342/464/396 1341/431/396
f 1343/441/397 1345/465/397 1346/466/397 1344/442/397
f 1347/415/398 1349/467/398 1350/468/398 1348/457/398
f 1351/456/399 1353/421/399 1354/442/399 1352/466/399
f 1355/455/400 1357/418/400 1358/443/400 1356/469/400
f 1359/382/401 1361/420/401 1362/467/401 1360/414/401
f 1363/465/402 1365/441/402 1366/397/402 1364/457/402
f 1367/467/403 1369/425/403 1368/414/403
f 1370/420/404 1372/470/404 1371/467/404
f 1373/467/405 1375/415/405 1374/425/405
f 1376/471/406 1378/416/406 1377/455/406
f 1379/472/407 1381/443/407 1380/456/407
f 1382/473/408 1384/470/408 1385/420/408 1383/428/408
f 1386/471/409 1388/474/409 1389/429/409 1387/416/409
f 1390/432/410 1392/431/410 1393/464/410 1391/475/410
f 1394/476/411 1396/477/411 1397/433/411 1395/434/411
f 1398/435/412 1400/433/412 1401/477/412 1399/478/412
f 1402/447/413 1404/479/413 1405/480/413 1403/448/413
f 1406/481/414 1408/480/414 1407/479/414
f 1409/482/415 1411/472/415 1412/456/415 1410/466/415
f 1413/466/416 1415/465/416 1416/483/416 1414/482/416
f 1417/443/417 1419/472/417 1420/484/417 1418/469/417
f 1421/469/418 1423/485/418 1422/455/418
f 1424/485/419 1426/471/419 1425/455/419
f 1427/457/420 1429/483/420 1428/465/420
f 1430/486/421 1432/458/421 1433/461/421 1431/487/421
f 1434/445/422 1436/444/422 1437/488/422 1435/489/422
f 1438/489/423 1440/490/423 1441/438/423 1439/445/423
f 1442/461/424 1444/463/424 1443/491/424
f 1445/487/425 1447/461/425 1446/491/425
f 1448/464/426 1450/409/426 1449/486/426
f 1451/409/427 1453/458/427 1452/486/427
f 1454/492/428 1456/450/428 1457/453/428 1455/493/428
f 1458/493/429 1460/494/429 1459/492/429
f 1461/457/430 1463/468/430 1464/495/430 1462/483/430
f 1465/496/431 1467/468/431 1466/467/431
f 1468/470/432 1470/496/432 1469/467/432
f 1471/497/433 1473/474/433 1474/471/433 1472/498/433
f 1475/473/434 1477/499/434 1478/500/434 1476/470/434
f 1479/481/435 1481/501/435 1482/502/435 1480/480/435
f 1483/503/436 1485/504/436 1486/505/436 1484/506/436
f 1487/506/437 1489/507/437 1490/508/437 1488/503/437
f 1491/464/438 1493/486/438 1494/509/438 1492/475/438
f 1495/501/439 1497/507/439 1496/506/439
f 1498/509/440 1500/487/440 1499/491/440
f 1501/487/441 1503/509/441 1502/486/441
f 1504/483/442 1506/495/442 1507/510/442 1505/482/442
f 1508/511/443 1510/512/443 1511/513/443 1509/510/443
f 1512/514/444 1514/498/444 1515/471/444 1513/485/444
f 1516/482/445 1518/511/445 1519/484/445 1517/472/445
f 1520/485/446 1522/469/446 1523/484/446 1521/514/446
f 1524/482/447 1526/513/447 1525/512/447
f 1527/513/448 1529/482/448 1528/510/448
f 1530/482/449 1532/512/449 1531/511/449
f 1533/515/450 1535/516/450 1536/517/450 1534/518/450
f 1537/519/451 1539/494/451 1540/493/451 1538/520/451
f 1541/521/452 1543/518/452 1544/517/452 1542/522/452
f 1545/501/453 1547/506/453 1546/523/453
f 1548/516/454 1550/519/454 1549/517/454
f 1551/502/455 1553/501/455 1552/523/455
f 1554/454/456 1556/524/456 1557/493/456 1555/453/456
f 1558/524/457 1560/454/457 1561/448/457 1559/480/457
f 1562/500/458 1564/525/458 1565/496/458 1563/470/458
f 1566/495/459 1568/468/459 1569/496/459 1567/525/459
f 1570/497/460 1572/498/460 1573/526/460 1571/526/460
f 1574/500/461 1576/499/461 1577/526/461 1575/526/461
f 1578/505/462 1580/527/462 1581/528/462 1579/506/462
f 1582/527/463 1584/522/463 1585/517/463 1583/528/463
f 1586/519/464 1588/520/464 1587/529/464
f 1589/517/465 1591/519/465 1590/529/465
f 1592/510/466 1594/530/466 1595/531/466 1593/511/466
f 1596/510/467 1598/495/467 1599/525/467 1597/530/467
f 1600/500/468 1602/526/468 1603/530/468 1601/525/468
f 1604/484/469 1606/511/469 1607/531/469 1605/514/469
f 1608/514/470 1610/531/470 1611/526/470 1609/498/470
f 1612/526/471 1614/531/471 1613/530/471
f 1615/532/472 1617/529/472 1618/520/472 1616/533/472
f 1619/529/473 1621/532/473 1622/528/473 1620/517/473
f 1623/533/474 1625/520/474 1626/493/474 1624/524/474
f 1627/502/475 1629/533/475 1630/524/475 1628/480/475
f 1631/532/476 1633/523/476 1634/506/476 1632/528/476
f 1635/523/477 1637/532/477 1638/533/477 1636/502/477
