# Blender 4.0.0
# www.blender.org
mtllib small_tree.mtl
o small_tree
v -0.050394 0.866176 -1.804087
v 1.665395 0.866176 -0.557494
v 1.010022 0.866176 1.459537
v -1.110809 0.866176 1.459537
v -1.766182 0.866176 -0.557494
v -0.050394 2.767589 0.000000
v -0.050394 1.365139 -1.689404
v 1.556324 1.365139 -0.522054
v 0.942613 1.365139 1.366756
v -1.043400 1.365139 1.366756
v -1.657112 1.365139 -0.522054
v -0.050394 3.795576 0.000000
v -0.050394 2.288910 -1.315197
v 1.200433 2.288910 -0.406418
v 0.722660 2.288910 1.064017
v -0.823448 2.288910 1.064017
v -1.301221 2.288910 -0.406418
v -0.050394 4.657306 0.000000
v -0.050394 3.653970 -0.652879
v 0.570531 3.653970 -0.201751
v 0.333359 3.653970 0.528190
v -0.434147 3.653970 0.528190
v -0.671319 3.653970 -0.201751
v -0.050394 5.218327 0.000000
v -0.176758 0.003296 0.126096
v -0.039429 5.067516 0.002114
v -0.193292 0.003296 -0.166845
v 0.102728 0.003296 0.104328
v 0.090304 0.003296 -0.179268
v -0.245815 0.003296 -0.022473
v 0.241999 0.003296 -0.040043
v -0.054067 0.003296 -0.272289
v -0.047325 0.003296 0.178899
vn 0.4663 0.6089 -0.6417
vn 0.7544 0.6089 0.2451
vn -0.0000 0.6089 0.7932
vn 0.5123 0.4902 -0.7052
vn -0.7544 0.6089 0.2451
vn -0.4663 0.6089 -0.6417
vn 0.8290 0.4902 0.2693
vn -0.0000 0.4902 0.8716
vn -0.8290 0.4902 0.2693
vn -0.5123 0.4902 -0.7052
vn 0.5362 0.4098 -0.7380
vn 0.8675 0.4098 0.2819
vn -0.0000 0.4098 0.9122
vn -0.8675 0.4098 0.2819
vn -0.5362 0.4098 -0.7380
vn 0.5569 0.3199 -0.7665
vn 0.9011 0.3199 0.2928
vn -0.0000 0.3199 0.9475
vn -0.9011 0.3199 0.2928
vn -0.5569 0.3199 -0.7665
vn -0.9390 0.0399 -0.3416
vn 0.5411 0.0439 -0.8398
vn 0.7193 0.0342 0.6939
vn -0.3775 0.0329 0.9254
vn 0.6755 0.0437 -0.7360
vn -0.9063 0.0349 0.4212
vn 0.4448 0.0306 0.8951
vn -0.6031 0.0449 -0.7964
vt 0.504586 0.974039
vt 0.504586 0.596889
vt 0.977624 0.713435
vt 0.796940 0.291769
vt 0.212233 0.291769
vt 0.861451 0.843343
vt 0.509749 0.576658
vt 0.952919 0.405436
vt 0.031548 0.713435
vt 0.437801 0.215870
vt 0.018491 0.517659
vt 0.283943 0.912701
vt 0.995065 0.581138
vt 0.490303 0.586734
vt 0.645523 0.232213
vt 0.087913 0.365051
vt 0.087913 0.808417
vt 0.644002 0.945425
vt 0.850381 0.317533
vt 0.498679 0.584218
vt 0.272872 0.248175
vt 0.007421 0.643218
vt 0.420871 0.956725
vt 0.941849 0.755441
vt 0.010773 0.014033
vt 0.944882 0.179009
vt 0.010773 0.050185
vt 0.010773 0.090450
vt 0.010773 0.127501
vt 0.984242 0.177616
vt 0.063020 0.015195
vt 0.984242 0.126290
vt 0.984242 0.085272
vt 0.984242 0.049814
vt 0.011470 0.182462
vt 0.984242 0.011863
s 0
usemtl small_tree
f 1/1/1 6/2/1 2/3/1
f 2/3/2 6/2/2 3/4/2
f 3/4/3 6/2/3 4/5/3
f 7/6/4 12/7/4 8/8/4
f 4/5/5 6/2/5 5/9/5
f 5/9/6 6/2/6 1/1/6
f 8/8/7 12/7/7 9/10/7
f 9/10/8 12/7/8 10/11/8
f 10/11/9 12/7/9 11/12/9
f 11/12/10 12/7/10 7/6/10
f 13/13/11 18/14/11 14/15/11
f 14/15/12 18/14/12 15/16/12
f 15/16/13 18/14/13 16/17/13
f 16/17/14 18/14/14 17/18/14
f 17/18/15 18/14/15 13/13/15
f 19/19/16 24/20/16 20/21/16
f 20/21/17 24/20/17 21/22/17
f 21/22/18 24/20/18 22/23/18
f 22/23/19 24/20/19 23/24/19
f 23/24/20 24/20/20 19/19/20
f 30/25/21 26/26/21 27/27/21
f 32/28/22 26/26/22 29/29/22
f 31/30/23 26/31/23 28/32/23
f 33/33/24 26/31/24 25/34/24
f 29/29/25 26/26/25 31/35/25
f 25/34/26 26/31/26 30/36/26
f 28/32/27 26/31/27 33/33/27
f 27/27/28 26/26/28 32/28/28
